<svg width="352" height="77" viewBox="0 0 352 77" fill="none" xmlns="http://www.w3.org/2000/svg">
<path d="M16.8938 42.044L30.6517 72.0842H23.0786L14.3274 50.1641L16.8938 42.044ZM7.84815 69.2653C7.62376 69.8262 7.58169 70.3031 7.72193 70.6957C7.86217 71.0884 8.10059 71.397 8.43717 71.6214C8.77375 71.8177 9.11034 71.9159 9.44692 71.9159H9.82558V72.3366H0.821956V71.9159C0.821956 71.9159 0.892077 71.9159 1.03232 71.9159C1.14452 71.9159 1.20061 71.9159 1.20061 71.9159C1.84573 71.9159 2.50488 71.7195 3.17804 71.3268C3.87926 70.9061 4.45426 70.2189 4.90304 69.2653H7.84815ZM16.8938 42.044L17.0621 47.1769L6.62803 72.2104H3.5567L14.4536 47.5556C14.5378 47.3873 14.678 47.0788 14.8743 46.63C15.0987 46.1532 15.3231 45.6202 15.5475 45.0312C15.7999 44.4422 16.0243 43.8812 16.2207 43.3483C16.417 42.7873 16.5152 42.3526 16.5152 42.044H16.8938ZM21.3115 62.3232V64.0903H8.94205V62.3232H21.3115ZM21.9426 69.2653H29.3054C29.7822 70.2189 30.3572 70.9061 31.0304 71.3268C31.7035 71.7195 32.3627 71.9159 33.0078 71.9159C33.0078 71.9159 33.0639 71.9159 33.1761 71.9159C33.2883 71.9159 33.3444 71.9159 33.3444 71.9159V72.3366H19.9652V71.9159H20.3438C20.9048 71.9159 21.3957 71.6915 21.8164 71.2427C22.2371 70.7659 22.2792 70.1067 21.9426 69.2653ZM43.4334 42.2544L70.276 67.8348L70.7808 72.9256L43.9382 47.3873L43.4334 42.2544ZM43.6437 69.3494V72.3366H40.1517V71.9159C40.1517 71.9159 40.2779 71.9159 40.5303 71.9159C40.7828 71.9159 40.923 71.9159 40.9511 71.9159C41.6523 71.9159 42.2553 71.6634 42.7602 71.1585C43.2651 70.6537 43.5175 70.0506 43.5175 69.3494H43.6437ZM49.534 69.3494C49.534 70.0506 49.7864 70.6537 50.2913 71.1585C50.7961 71.6634 51.3992 71.9159 52.1004 71.9159C52.1285 71.9159 52.2687 71.9159 52.5211 71.9159C52.7736 71.9159 52.8998 71.9159 52.8998 71.9159V72.3366H49.4077V69.3494H49.534ZM43.4334 42.2544L49.4919 48.6916L49.534 72.3366H43.5175V47.5135C43.5175 45.9428 43.4334 44.6806 43.2651 43.7269C43.0968 42.7452 43.0126 42.2544 43.0126 42.2544H43.4334ZM70.6546 42.8855V67.5403C70.6546 68.5781 70.6967 69.5177 70.7808 70.3592C70.865 71.1726 70.9491 71.8037 71.0333 72.2524C71.1174 72.7012 71.1595 72.9256 71.1595 72.9256H70.7808L64.6802 66.1098V42.8855H70.6546ZM74.0204 42.8855V43.3062C74.0204 43.3062 73.8942 43.3062 73.6418 43.3062C73.3894 43.3062 73.2631 43.3062 73.2631 43.3062C72.5619 43.3062 71.9589 43.5587 71.454 44.0635C70.9491 44.5404 70.6827 45.1434 70.6546 45.8727H70.5284V42.8855H74.0204ZM61.2723 42.8855H64.7644V45.8727H64.6802C64.6522 45.1434 64.3857 44.5404 63.8809 44.0635C63.404 43.5587 62.801 43.3062 62.0717 43.3062C62.0717 43.3062 61.9455 43.3062 61.6931 43.3062C61.4406 43.3062 61.3004 43.3062 61.2723 43.3062V42.8855ZM113.091 60.5562V67.4982C112.418 68.3397 111.408 69.1811 110.062 70.0226C108.743 70.864 107.159 71.5653 105.307 72.1262C103.456 72.6592 101.395 72.9256 99.1226 72.9256C95.925 72.9256 93.1342 72.3085 90.7501 71.0744C88.3659 69.8122 86.5147 68.0311 85.1964 65.7311C83.8781 63.4311 83.219 60.7104 83.219 57.569C83.219 54.4275 83.8641 51.7208 85.1543 49.4489C86.4726 47.1769 88.3379 45.4239 90.7501 44.1897C93.1903 42.9276 96.0653 42.2965 99.375 42.2965C100.918 42.2965 102.418 42.4087 103.877 42.633C105.335 42.8294 106.682 43.0958 107.916 43.4324C109.15 43.769 110.174 44.1617 110.987 44.6105L111.071 51.805H110.693C110.16 49.8977 109.388 48.383 108.379 47.2611C107.369 46.1111 106.191 45.2977 104.845 44.8208C103.526 44.316 102.124 44.0635 100.637 44.0635C98.3653 44.0635 96.4299 44.6245 94.8311 45.7465C93.2604 46.8403 92.0683 48.4111 91.2549 50.4586C90.4696 52.5062 90.0769 54.9604 90.0769 57.8214C90.0769 60.5141 90.4415 62.8702 91.1708 64.8897C91.9281 66.8811 93.022 68.4238 94.4525 69.5177C95.883 70.5836 97.622 71.1305 99.6695 71.1585C100.707 71.1585 101.703 71.0043 102.657 70.6957C103.638 70.3592 104.494 69.8823 105.223 69.2653C105.952 68.6482 106.471 67.8909 106.78 66.9933L106.822 60.5562C106.822 59.294 106.107 58.6629 104.676 58.6629H104.003V58.2421H115.826V58.6629H115.194C113.736 58.6629 113.035 59.294 113.091 60.5562ZM133.477 42.8855V72.3366H127.166V42.8855H133.477ZM127.292 69.2653V72.3366H123.927V71.9159C123.927 71.9159 124.011 71.9159 124.179 71.9159C124.375 71.9159 124.474 71.9159 124.474 71.9159C125.203 71.9159 125.82 71.6634 126.325 71.1585C126.858 70.6256 127.138 69.9945 127.166 69.2653H127.292ZM127.292 45.9568H127.166C127.138 45.2275 126.858 44.6105 126.325 44.1056C125.82 43.5727 125.203 43.3062 124.474 43.3062C124.474 43.3062 124.375 43.3062 124.179 43.3062C124.011 43.3062 123.927 43.3062 123.927 43.3062V42.8855H127.292V45.9568ZM133.351 69.2653H133.477C133.505 69.9945 133.772 70.6256 134.277 71.1585C134.809 71.6634 135.441 71.9159 136.17 71.9159C136.17 71.9159 136.254 71.9159 136.422 71.9159C136.591 71.9159 136.689 71.9159 136.717 71.9159V72.3366H133.351V69.2653ZM133.351 45.9568V42.8855H136.717V43.3062C136.689 43.3062 136.591 43.3062 136.422 43.3062C136.254 43.3062 136.17 43.3062 136.17 43.3062C135.441 43.3062 134.809 43.5727 134.277 44.1056C133.772 44.6105 133.505 45.2275 133.477 45.9568H133.351ZM156.479 42.8855V72.3366H150.168V42.8855H156.479ZM167.587 70.5275L168.596 72.3366H156.353V70.5275H167.587ZM166.03 56.9379V58.7049H156.353V56.9379H166.03ZM168.091 42.8855V44.6946H156.353V42.8855H168.091ZM170.658 63.7116L168.723 72.3366H160.476L161.991 70.5275C163.393 70.5275 164.627 70.261 165.693 69.7281C166.759 69.1671 167.671 68.3817 168.428 67.372C169.185 66.3342 169.788 65.1141 170.237 63.7116H170.658ZM166.03 58.6208V62.6598H165.609V62.3232C165.609 61.2854 165.273 60.4299 164.599 59.7568C163.926 59.0836 163.071 58.733 162.033 58.7049V58.6208H166.03ZM166.03 52.983V57.022H162.033V56.9379C163.071 56.9098 163.926 56.5592 164.599 55.886C165.273 55.1848 165.609 54.3153 165.609 53.2775V52.983H166.03ZM168.091 44.5684V49.4909H167.671V48.9861C167.671 47.6958 167.278 46.658 166.493 45.8727C165.735 45.0873 164.698 44.6806 163.379 44.6526V44.5684H168.091ZM168.091 42.1282V43.3483L162.959 42.8855C163.576 42.8855 164.221 42.8434 164.894 42.7593C165.595 42.6751 166.24 42.577 166.829 42.4648C167.418 42.3526 167.839 42.2404 168.091 42.1282ZM150.295 69.2653V72.3366H146.929V71.9159C146.929 71.9159 147.013 71.9159 147.181 71.9159C147.377 71.9159 147.476 71.9159 147.476 71.9159C148.205 71.9159 148.822 71.6634 149.327 71.1585C149.86 70.6256 150.14 69.9945 150.168 69.2653H150.295ZM150.295 45.9568H150.168C150.14 45.2275 149.86 44.6105 149.327 44.1056C148.822 43.5727 148.205 43.3062 147.476 43.3062C147.476 43.3062 147.377 43.3062 147.181 43.3062C147.013 43.3062 146.929 43.3062 146.929 43.3062V42.8855H150.295V45.9568ZM226.103 60.0513L226.482 67.2878C225.865 68.3256 225.037 69.2653 224 70.1067C222.962 70.9482 221.672 71.6354 220.129 72.1683C218.586 72.6732 216.763 72.9256 214.659 72.9256C211.237 72.8976 208.236 72.2805 205.656 71.0744C203.103 69.8403 201.126 68.0872 199.723 65.8153C198.321 63.5433 197.62 60.7946 197.62 57.569C197.62 54.4275 198.307 51.7208 199.681 49.4489C201.056 47.1489 203.019 45.3818 205.572 44.1477C208.152 42.9135 211.223 42.2965 214.786 42.2965C217.029 42.2965 219.035 42.5209 220.802 42.9696C222.597 43.4184 224.098 43.9654 225.304 44.6105L225.346 51.805H224.967C224.21 49.0281 222.976 47.0507 221.265 45.8727C219.554 44.6666 217.548 44.0635 215.248 44.0635C213.004 44.0635 211.083 44.6105 209.484 45.7044C207.886 46.7983 206.651 48.341 205.782 50.3324C204.912 52.3239 204.478 54.708 204.478 57.4848C204.478 60.2616 204.884 62.6598 205.698 64.6793C206.539 66.6988 207.717 68.2695 209.232 69.3915C210.775 70.5134 212.584 71.1025 214.659 71.1585C216.819 71.1585 218.642 70.8079 220.129 70.1067C221.615 69.4055 222.807 68.2415 223.705 66.6147C224.631 64.9878 225.318 62.8 225.767 60.0513H226.103ZM250.18 42.044L263.938 72.0842H256.365L247.614 50.1641L250.18 42.044ZM241.135 69.2653C240.91 69.8262 240.868 70.3031 241.009 70.6957C241.149 71.0884 241.387 71.397 241.724 71.6214C242.06 71.8177 242.397 71.9159 242.734 71.9159H243.112V72.3366H234.109V71.9159C234.109 71.9159 234.179 71.9159 234.319 71.9159C234.431 71.9159 234.487 71.9159 234.487 71.9159C235.132 71.9159 235.791 71.7195 236.465 71.3268C237.166 70.9061 237.741 70.2189 238.19 69.2653H241.135ZM250.18 42.044L250.349 47.1769L239.915 72.2104H236.843L247.74 47.5556C247.824 47.3873 247.965 47.0788 248.161 46.63C248.385 46.1532 248.61 45.6202 248.834 45.0312C249.087 44.4422 249.311 43.8812 249.507 43.3483C249.704 42.7873 249.802 42.3526 249.802 42.044H250.18ZM254.598 62.3232V64.0903H242.229V62.3232H254.598ZM255.229 69.2653H262.592C263.069 70.2189 263.644 70.9061 264.317 71.3268C264.99 71.7195 265.649 71.9159 266.294 71.9159C266.294 71.9159 266.351 71.9159 266.463 71.9159C266.575 71.9159 266.631 71.9159 266.631 71.9159V72.3366H253.252V71.9159H253.63C254.191 71.9159 254.682 71.6915 255.103 71.2427C255.524 70.7659 255.566 70.1067 255.229 69.2653ZM276.72 42.2544L303.563 67.8348L304.067 72.9256L277.225 47.3873L276.72 42.2544ZM276.93 69.3494V72.3366H273.438V71.9159C273.438 71.9159 273.565 71.9159 273.817 71.9159C274.069 71.9159 274.21 71.9159 274.238 71.9159C274.939 71.9159 275.542 71.6634 276.047 71.1585C276.552 70.6537 276.804 70.0506 276.804 69.3494H276.93ZM282.821 69.3494C282.821 70.0506 283.073 70.6537 283.578 71.1585C284.083 71.6634 284.686 71.9159 285.387 71.9159C285.415 71.9159 285.555 71.9159 285.808 71.9159C286.06 71.9159 286.186 71.9159 286.186 71.9159V72.3366H282.694V69.3494H282.821ZM276.72 42.2544L282.779 48.6916L282.821 72.3366H276.804V47.5135C276.804 45.9428 276.72 44.6806 276.552 43.7269C276.383 42.7452 276.299 42.2544 276.299 42.2544H276.72ZM303.941 42.8855V67.5403C303.941 68.5781 303.983 69.5177 304.067 70.3592C304.152 71.1726 304.236 71.8037 304.32 72.2524C304.404 72.7012 304.446 72.9256 304.446 72.9256H304.067L297.967 66.1098V42.8855H303.941ZM307.307 42.8855V43.3062C307.307 43.3062 307.181 43.3062 306.928 43.3062C306.676 43.3062 306.55 43.3062 306.55 43.3062C305.849 43.3062 305.246 43.5587 304.741 44.0635C304.236 44.5404 303.969 45.1434 303.941 45.8727H303.815V42.8855H307.307ZM294.559 42.8855H298.051V45.8727H297.967C297.939 45.1434 297.672 44.5404 297.167 44.0635C296.691 43.5587 296.088 43.3062 295.358 43.3062C295.358 43.3062 295.232 43.3062 294.98 43.3062C294.727 43.3062 294.587 43.3062 294.559 43.3062V42.8855ZM333.209 42.2965C336.574 42.2965 339.492 42.9276 341.96 44.1897C344.456 45.4239 346.377 47.1769 347.724 49.4489C349.098 51.7208 349.785 54.4415 349.785 57.611C349.785 60.7525 349.098 63.4732 347.724 65.7732C346.377 68.0451 344.456 69.8122 341.96 71.0744C339.492 72.3085 336.574 72.9256 333.209 72.9256C329.843 72.9256 326.912 72.3085 324.415 71.0744C321.947 69.8122 320.04 68.0451 318.693 65.7732C317.347 63.5013 316.674 60.7805 316.674 57.611C316.674 54.4696 317.347 51.7629 318.693 49.4909C320.04 47.191 321.947 45.4239 324.415 44.1897C326.912 42.9276 329.843 42.2965 333.209 42.2965ZM333.209 71.1585C335.2 71.1585 336.911 70.6116 338.342 69.5177C339.772 68.3958 340.88 66.825 341.665 64.8055C342.451 62.786 342.843 60.3879 342.843 57.611C342.843 54.8342 342.451 52.4361 341.665 50.4166C340.88 48.397 339.772 46.8403 338.342 45.7465C336.911 44.6245 335.2 44.0635 333.209 44.0635C331.245 44.0635 329.534 44.6245 328.076 45.7465C326.645 46.8403 325.537 48.397 324.752 50.4166C323.967 52.4361 323.574 54.8342 323.574 57.611C323.574 60.3879 323.967 62.786 324.752 64.8055C325.537 66.825 326.645 68.3958 328.076 69.5177C329.534 70.6116 331.245 71.1585 333.209 71.1585Z" fill="url(#paint0_linear_4_529)"/>
<path d="M173.53 17.0532C173.688 14.2333 173.845 13.121 173.665 11.0382C173.466 9.12914 173.128 7.73047 172.65 6.36893C172.172 5.00738 168.166 5.539 168.646 7.87763C169.123 10.2163 169.448 16.9047 169.256 19.0802C171.351 17.7757 173.53 17.0532 173.53 17.0532Z" fill="#F4ABBA"/>
<path d="M171.351 17.7757C168.456 19.1942 165.561 22.03 165.561 26.283C165.561 37.8635 176.158 40.5335 184.844 43.3693C193.529 46.2051 194.563 45.4613 197.408 43.299C198.856 40.4633 197.968 25.1734 193.625 19.5018C190.493 15.4119 177.953 14.5422 171.351 17.7757Z" fill="#BE1931"/>
<path d="M171.351 17.7757C168.456 19.1942 165.561 22.03 165.561 26.283C165.561 37.8635 178.865 44.2881 183.633 45.3937C192.125 47.3638 195.959 46.1348 197.406 43.299C194.993 44.7746 184.798 42.485 179.394 37.768C173.728 32.8203 171.174 24.195 174.816 19.8014C174.912 18.4279 174.656 17.6975 174.656 16.5984C173.457 16.9007 172.338 17.2918 171.351 17.7757Z" fill="#A0041E"/>
<path d="M174.817 19.8014C172.905 16.9656 171.899 11.7806 175.694 7.84978C179.28 4.13503 186.21 4.082 189.531 9.13974C192.354 13.4392 190.168 22.0287 190.168 22.0287C190.168 22.0287 183.667 15.4265 181.712 18.5168C179.761 21.6084 175.119 20.2482 174.817 19.8014Z" fill="#EA596E"/>
<path d="M189.86 23.3067C191.424 21.1431 191.424 17.781 191.424 17.781C191.424 17.781 191.861 15.807 196.433 17.0677C196.88 17.191 198.245 15.107 197.39 14.7901C194.283 13.638 192.071 14.3804 192.071 14.3804C192.071 14.3804 193.599 13.2734 195.823 13.0109C196.705 12.9062 195.989 11.1947 195.112 11.2119C194.165 11.2305 193.303 11.4558 192.281 11.8933C191.803 12.0975 191.307 11.7488 191.128 11.5752C188.437 8.95679 185.413 9.33596 183.567 10.1394C181.597 10.9971 180.779 13.4246 181.99 15.0685C183.201 16.7124 182.007 17.956 181.255 19.2698C180.037 21.3937 187.793 26.165 189.86 23.3067Z" fill="#F4ABBA"/>
<path d="M178.087 8.84675C177.08 6.58237 175.935 5.56817 174.441 4.16288C172.947 2.75758 175.457 1.00228 177.07 2.52425C178.684 4.04621 180.178 6.91513 180.417 7.61778C180.657 8.32043 178.688 10.1964 178.087 8.84675Z" fill="#EA596E"/>
<path d="M179.396 5.60527C180.93 4.8191 181.434 2.64222 181.553 1.93957C181.672 1.23692 183.883 1.17859 183.644 2.70055C183.404 4.22251 183.661 5.24467 183.661 5.24467C183.661 5.24467 184.839 3.27858 186.034 2.28294C187.229 1.2873 188.6 2.87025 187.942 3.79695C187.284 4.72365 187.158 6.42193 187.468 7.0225C187.778 7.62307 184.434 8.37742 182.305 7.96776C180.179 7.55943 179.396 5.60527 179.396 5.60527Z" fill="#EA596E"/>
<path d="M174.657 14.2717L174.615 14.2704C174.242 14.2479 173.959 13.9337 173.982 13.5677C174.212 9.91928 176.683 6.99865 180.277 6.12896C184.854 5.02461 187.658 7.64562 187.774 7.75831C188.041 8.01418 188.046 8.43311 187.785 8.69561C187.527 8.95546 187.098 8.96209 186.831 8.70754C186.735 8.61739 184.425 6.49221 180.601 7.41626C177.548 8.15603 175.529 10.5437 175.333 13.6499C175.31 14.0013 175.012 14.2717 174.657 14.2717ZM178.073 6.14354C177.839 6.14354 177.612 6.02555 177.486 5.8121C177.478 5.79752 176.608 4.34052 175.353 3.5517C175.039 3.35416 174.947 2.9445 175.149 2.63693C175.35 2.32803 175.768 2.23788 176.084 2.43674C177.62 3.40321 178.617 5.08029 178.658 5.15055C178.845 5.46741 178.734 5.87176 178.41 6.05472C178.305 6.11437 178.188 6.14354 178.073 6.14354ZM181.967 5.20226C181.898 5.20226 181.829 5.19298 181.76 5.17044C181.404 5.05908 181.209 4.68654 181.321 4.33787C181.323 4.33124 181.557 3.60208 181.698 2.33201C181.738 1.96742 182.078 1.7036 182.443 1.7447C182.816 1.78447 183.083 2.11061 183.043 2.47519C182.886 3.89374 182.621 4.7104 182.61 4.74355C182.518 5.02461 182.252 5.20226 181.967 5.20226ZM185.273 5.43692C185.15 5.43692 185.026 5.40377 184.913 5.33483C184.598 5.13995 184.502 4.73162 184.701 4.42272C184.731 4.37631 185.434 3.29052 186.605 2.45928C186.907 2.24583 187.33 2.31079 187.55 2.60644C187.769 2.90208 187.703 3.31704 187.401 3.53181C186.448 4.20794 185.851 5.12006 185.847 5.12934C185.717 5.3282 185.498 5.43692 185.273 5.43692Z" fill="#F4ABBA"/>
<path d="M190.07 19.0192C190.032 19.0192 189.992 19.0166 189.953 19.01C189.586 18.9476 189.339 18.6056 189.401 18.245L189.463 17.8963C189.944 15.2064 190.359 12.8823 186.735 11.3577C186.391 11.2132 186.233 10.8234 186.38 10.4867C186.526 10.15 186.926 9.99352 187.268 10.1394C191.875 12.0763 191.277 15.4304 190.795 18.1244L190.734 18.4677C190.68 18.7912 190.393 19.0192 190.07 19.0192ZM192.368 13.2893C192.177 13.2893 191.995 13.1833 191.909 13.0043C191.788 12.7551 191.897 12.4594 192.151 12.3428C192.217 12.3123 193.798 11.5857 194.981 11.5553C195.263 11.5937 195.494 11.766 195.502 12.0392C195.509 12.3136 195.288 12.5416 195.008 12.5496C194.04 12.5748 192.6 13.235 192.586 13.2416C192.514 13.2734 192.439 13.2893 192.368 13.2893ZM196.347 16.1675C196.273 16.1675 196.2 16.1569 196.129 16.1317C194.564 15.6081 192.956 15.9859 192.941 15.9899C192.575 16.0774 192.212 15.86 192.124 15.506C192.035 15.1507 192.254 14.7927 192.615 14.7039C192.697 14.684 194.614 14.2253 196.566 14.8776C196.92 14.9956 197.109 15.3721 196.988 15.7194C196.891 15.9939 196.628 16.1675 196.347 16.1675ZM172.198 16.7204C171.825 16.7204 171.522 16.4234 171.522 16.0575C171.522 16.0005 171.509 10.2931 170.532 7.35395C170.416 7.00528 170.611 6.63141 170.965 6.51872C171.319 6.40471 171.702 6.59562 171.818 6.94429C172.861 10.085 172.874 15.8149 172.874 16.0588C172.875 16.4234 172.572 16.7204 172.198 16.7204Z" fill="#F7DAE2"/>
<path d="M168.069 33.8398C167.758 33.8398 167.476 33.6277 167.409 33.3175C167.377 33.1769 166.656 29.8427 167.656 27.6671C168.551 25.7196 169.872 24.9719 171.036 24.313C172.422 23.5281 173.423 22.962 173.622 20.5279C173.652 20.1634 173.978 19.8969 174.351 19.9208C174.724 19.9499 175.001 20.2694 174.971 20.6353C174.716 23.7628 173.189 24.6272 171.714 25.4624C170.63 26.0762 169.607 26.6542 168.892 28.212C168.076 29.9885 168.727 33.0059 168.734 33.0377C168.812 33.3957 168.581 33.7483 168.215 33.8252C168.164 33.8345 168.116 33.8398 168.069 33.8398ZM184.867 38.1525C184.632 38.1525 184.403 38.0318 184.277 37.8171C184.092 37.5002 184.205 37.0945 184.53 36.9129C184.557 36.8983 187.072 35.4758 187.888 33.6993C188.736 31.8512 188.336 31.0385 187.731 29.8082C187.172 28.6734 186.476 27.2588 186.681 24.7703C186.709 24.4058 187.046 24.1353 187.409 24.1632C187.781 24.1923 188.058 24.5118 188.029 24.8777C187.855 27.0082 188.412 28.1391 188.95 29.2342C189.608 30.5718 190.231 31.834 189.124 34.2442C188.125 36.4184 185.319 38 185.201 38.0663C185.095 38.1246 184.98 38.1525 184.867 38.1525Z" fill="#D84864"/>
<path d="M183.362 32.05C183.169 32.05 182.976 31.9679 182.842 31.8114C182.315 31.1923 182.198 30.1648 182.557 29.3097C182.89 28.5169 183.553 28.0198 184.381 27.9429C185.515 27.8368 186.501 26.7961 186.544 26.173C186.57 25.8071 186.896 25.5234 187.264 25.5552C187.636 25.5804 187.919 25.8959 187.895 26.2605C187.801 27.6486 186.156 29.1069 184.51 29.2633C184.186 29.2925 183.951 29.4781 183.809 29.8135C183.623 30.2537 183.703 30.7521 183.882 30.9616C184.121 31.2427 184.082 31.6603 183.797 31.8949C183.669 31.9997 183.516 32.05 183.362 32.05ZM193.783 37.4856C193.733 37.4856 193.682 37.4803 193.632 37.4684C193.266 37.3862 193.039 37.0296 193.124 36.6729C193.176 36.4582 193.067 36.0061 192.77 35.5911C192.511 35.2318 192.177 34.9959 191.878 34.9614C190.266 34.7745 188.467 31.9864 188.183 30.662C188.106 30.3027 188.34 29.9514 188.705 29.8758C189.075 29.8042 189.431 30.0283 189.508 30.3876C189.76 31.5529 191.319 33.5627 192.037 33.6436C192.733 33.7245 193.387 34.1447 193.877 34.8288C194.375 35.5209 194.591 36.3428 194.444 36.9712C194.369 37.2788 194.09 37.4856 193.783 37.4856ZM189.791 44.0481C189.624 44.0481 189.456 43.9884 189.325 43.8665C189.054 43.6159 189.042 43.1956 189.298 42.9292C190.218 41.9759 189.664 40.5349 188.758 39.5989C187.923 38.7358 186.429 36.421 187.137 34.7745C187.283 34.4377 187.679 34.2826 188.023 34.4205C188.367 34.5623 188.529 34.9508 188.385 35.2889C188.022 36.1307 188.945 37.8635 189.741 38.6854C191.366 40.3652 191.589 42.4824 190.282 43.8386C190.149 43.9778 189.971 44.0481 189.791 44.0481ZM175.783 32.7792C175.707 32.7792 175.63 32.766 175.555 32.7408C175.203 32.6161 175.02 32.237 175.147 31.8923C175.484 30.9775 174.914 30.312 172.894 29.2554C171.758 28.6628 171.041 27.6472 170.925 26.4726C170.824 25.4558 171.201 24.4747 171.906 23.9126C172.198 23.6806 172.622 23.7243 172.857 24.008C173.093 24.2917 173.049 24.7094 172.76 24.94C172.407 25.2211 172.216 25.7726 172.273 26.344C172.315 26.7709 172.534 27.5637 173.531 28.0834C174.837 28.7675 177.268 30.0376 176.421 32.3391C176.321 32.6108 176.059 32.7792 175.783 32.7792ZM174.362 38.8114C174.307 38.8114 174.253 38.8047 174.197 38.7915C172.676 38.419 171.739 36.7445 172.149 35.1364C172.375 34.2534 170.732 32.4849 170.045 32.2874C168.172 31.7544 167.187 29.8135 167.474 28.4069C167.547 28.0476 167.896 27.8129 168.269 27.8859C168.636 27.9575 168.873 28.3061 168.8 28.6654C168.673 29.2885 169.119 30.6421 170.424 31.0133C171.672 31.3713 173.91 33.7019 173.462 35.4572C173.209 36.4476 173.821 37.3318 174.527 37.5042C174.89 37.593 175.111 37.9536 175.019 38.3076C174.941 38.6112 174.665 38.8114 174.362 38.8114ZM176.04 24.9732C175.288 24.9732 174.53 24.5874 173.964 23.9033C173.331 23.1357 173.11 22.2063 173.389 21.4759C173.52 21.1312 173.912 20.9588 174.261 21.0874C174.611 21.216 174.789 21.5978 174.657 21.9412C174.552 22.2156 174.703 22.6902 175.016 23.0694C175.278 23.3863 175.71 23.7018 176.155 23.6395C176.536 23.5931 176.87 23.8344 176.926 24.1963C176.981 24.5582 176.727 24.8963 176.357 24.9506C176.252 24.9652 176.146 24.9732 176.04 24.9732Z" fill="#D84864"/>
<path d="M173.69 29.4423C173.431 29.4423 173.169 29.3893 172.909 29.262C172.574 29.0976 172.439 28.6999 172.606 28.3724C172.773 28.0463 173.178 27.9111 173.514 28.0754C173.811 28.2266 174.368 27.927 174.906 27.6393C175.697 27.219 176.594 26.7378 177.533 27.1289C177.877 27.2707 178.039 27.6592 177.895 27.9959C177.75 28.3353 177.353 28.4917 177.008 28.3512C176.67 28.2094 176.101 28.5129 175.551 28.8059C175.002 29.0976 174.355 29.4423 173.69 29.4423ZM193.783 42.4572C193.622 42.4572 193.46 42.4015 193.33 42.2862C193.052 42.0409 193.029 41.6233 193.281 41.3502C193.366 41.2561 193.41 40.979 193.315 40.6502C193.204 40.2657 192.898 39.7991 192.372 39.644C191.913 39.5087 191.446 39.6267 190.952 39.75C190.34 39.9038 189.649 40.0801 188.948 39.7354C188.613 39.5724 188.478 39.1733 188.644 38.8459C188.812 38.5184 189.216 38.3832 189.553 38.5489C189.787 38.6616 190.107 38.5926 190.615 38.4654C191.205 38.3182 191.941 38.1299 192.76 38.3752C193.655 38.6377 194.349 39.3536 194.618 40.2922C194.833 41.0479 194.709 41.7758 194.285 42.2385C194.151 42.3843 193.967 42.4572 193.783 42.4572ZM195.34 25.8853C195.074 25.8853 194.821 25.7315 194.714 25.4743C194.258 24.3912 193.622 23.6753 193.056 23.6077C192.596 23.5586 192.213 23.9484 191.959 24.2878C190.94 25.6493 188.432 25.6626 187.248 25.4783C186.88 25.4213 186.627 25.0819 186.685 24.72C186.743 24.358 187.093 24.1088 187.459 24.1685C188.711 24.362 190.374 24.1632 190.868 23.5029C191.715 22.3721 192.602 22.2196 193.22 22.2912C194.303 22.4198 195.303 23.3955 195.964 24.9692C196.106 25.3073 195.941 25.6957 195.597 25.8336C195.513 25.8707 195.425 25.8853 195.34 25.8853Z" fill="#D84864"/>
<defs>
<linearGradient id="paint0_linear_4_529" x1="2" y1="53.7088" x2="352" y2="53.4597" gradientUnits="userSpaceOnUse">
<stop stop-color="#200122"/>
<stop offset="1" stop-color="#6F0000"/>
</linearGradient>
</defs>
</svg>
