<svg width="413" height="66" viewBox="0 0 413 66" fill="none" xmlns="http://www.w3.org/2000/svg">
<path d="M18.1529 31.0204C18.3316 28.2035 18.5088 27.0924 18.3056 25.0118C18.0811 23.1048 17.6993 21.7076 17.1601 20.3475C16.6209 18.9874 12.0999 19.5185 12.6406 21.8546C13.1797 24.1907 13.5463 30.8721 13.3294 33.0453C15.6938 31.7421 18.1529 31.0204 18.1529 31.0204Z" fill="#F4ABBA"/>
<path d="M15.6938 31.7421C12.4268 33.1592 9.1597 35.992 9.1597 40.2404C9.1597 51.8086 21.1191 54.4758 30.9219 57.3086C40.7231 60.1413 41.89 59.3984 45.1006 57.2384C46.7349 54.4056 45.7329 39.132 40.8315 33.4664C37.2972 29.3808 23.1444 28.5121 15.6938 31.7421Z" fill="#BE1931"/>
<path d="M15.6938 31.7421C12.4268 33.1592 9.1597 35.992 9.1597 40.2404C9.1597 51.8086 24.1739 58.2263 29.5548 59.3308C39.1392 61.2988 43.4663 60.0711 45.099 57.2384C42.3757 58.7124 30.8699 56.4252 24.7711 51.7132C18.3759 46.7708 15.4938 38.1546 19.6039 33.7657C19.7124 32.3937 19.4237 31.664 19.4237 30.5661C18.0705 30.8681 16.8073 31.2588 15.6938 31.7421Z" fill="#A0041E"/>
<path d="M19.6055 33.7657C17.4473 30.933 16.3125 25.7535 20.5952 21.8268C24.6428 18.116 32.463 18.063 36.2112 23.1154C39.3973 27.4102 36.9306 35.9906 36.9306 35.9906C36.9306 35.9906 29.5931 29.3954 27.3875 32.4824C25.185 35.5708 19.9461 34.212 19.6055 33.7657Z" fill="#EA596E"/>
<path d="M36.5823 37.2673C38.348 35.106 38.348 31.7474 38.348 31.7474C38.348 31.7474 38.8413 29.7755 44.0008 31.0349C44.5048 31.1581 46.046 29.0762 45.0807 28.7597C41.5738 27.6089 39.078 28.3505 39.078 28.3505C39.078 28.3505 40.8025 27.2447 43.312 26.9825C44.3078 26.8778 43.4998 25.1681 42.5101 25.1853C41.4409 25.2039 40.468 25.429 39.3148 25.866C38.7756 26.07 38.2151 25.7217 38.0135 25.5482C34.977 22.9326 31.5633 23.3114 29.48 24.1139C27.2576 24.9708 26.3336 27.3957 27.7006 29.0378C29.0676 30.68 27.7204 31.9223 26.8712 33.2347C25.4966 35.3563 34.25 40.1226 36.5823 37.2673Z" fill="#F4ABBA"/>
<path d="M23.2956 22.8227C22.1592 20.5607 20.8671 19.5476 19.1808 18.1438C17.4946 16.74 20.3279 14.9866 22.1485 16.5069C23.9692 18.0273 25.6554 20.8931 25.9258 21.595C26.1961 22.2969 23.9738 24.1709 23.2956 22.8227Z" fill="#EA596E"/>
<path d="M24.7726 19.5847C26.5047 18.7994 27.0729 16.6248 27.2073 15.9229C27.3417 15.221 29.8374 15.1627 29.5671 16.6831C29.2967 18.2034 29.5869 19.2245 29.5869 19.2245C29.5869 19.2245 30.9158 17.2605 32.2644 16.2659C33.6131 15.2713 35.1603 16.8526 34.418 17.7783C33.6757 18.704 33.5337 20.4005 33.8835 21.0004C34.2332 21.6003 30.4591 22.3539 28.0565 21.9447C25.657 21.5368 24.7726 19.5847 24.7726 19.5847Z" fill="#EA596E"/>
<path d="M19.4253 28.2419L19.3779 28.2406C18.9564 28.2181 18.6371 27.9042 18.6631 27.5387C18.9228 23.8941 21.7118 20.9766 25.767 20.1078C30.9326 19.0046 34.0973 21.6229 34.2287 21.7354C34.5296 21.991 34.5357 22.4095 34.2409 22.6717C33.9491 22.9313 33.465 22.9379 33.1641 22.6836C33.0556 22.5936 30.4484 20.4707 26.1335 21.3937C22.6878 22.1327 20.4089 24.5179 20.1874 27.6208C20.1615 27.9717 19.8254 28.2419 19.4253 28.2419ZM23.2804 20.1224C23.0161 20.1224 22.7595 20.0045 22.6175 19.7913C22.6083 19.7767 21.6262 18.3213 20.2103 17.5333C19.856 17.336 19.7521 16.9267 19.9797 16.6195C20.2073 16.3109 20.6792 16.2209 21.0351 16.4195C22.7687 17.385 23.8944 19.0602 23.9402 19.1304C24.151 19.447 24.0257 19.8509 23.6607 20.0336C23.5416 20.0932 23.4102 20.1224 23.2804 20.1224ZM27.6747 19.1821C27.5968 19.1821 27.5189 19.1728 27.441 19.1503C27.0393 19.0391 26.8193 18.6669 26.9461 18.3186C26.9476 18.312 27.2119 17.5836 27.3707 16.3149C27.4165 15.9507 27.7999 15.6872 28.2123 15.7282C28.6323 15.7679 28.9348 16.0937 28.8889 16.4579C28.7118 17.875 28.4124 18.6908 28.4002 18.7239C28.2963 19.0046 27.9969 19.1821 27.6747 19.1821ZM31.4061 19.4165C31.2671 19.4165 31.1265 19.3834 30.9998 19.3145C30.6439 19.1198 30.5354 18.7119 30.76 18.4034C30.7936 18.357 31.5878 17.2724 32.909 16.442C33.2496 16.2288 33.7277 16.2937 33.9751 16.589C34.2226 16.8844 34.1477 17.2989 33.8071 17.5134C32.7318 18.1888 32.0583 19.1 32.0537 19.1093C31.907 19.3079 31.6596 19.4165 31.4061 19.4165Z" fill="#F4ABBA"/>
<path d="M36.8191 32.9844C36.7763 32.9844 36.732 32.9817 36.6877 32.9751C36.2738 32.9129 35.9943 32.5712 36.0646 32.211L36.1348 31.8627C36.677 29.1756 37.146 26.854 33.0556 25.331C32.6677 25.1867 32.489 24.7973 32.6554 24.4609C32.8204 24.1245 33.271 23.9683 33.6574 24.1139C38.8566 26.0488 38.1815 29.3994 37.6378 32.0904L37.569 32.4335C37.5079 32.7566 37.1841 32.9844 36.8191 32.9844ZM39.4126 27.2606C39.1972 27.2606 38.9926 27.1546 38.8948 26.9758C38.7589 26.7269 38.8811 26.4315 39.1682 26.315C39.243 26.2845 41.027 25.5588 42.362 25.5283C42.6797 25.5667 42.9408 25.7389 42.95 26.0117C42.9576 26.2859 42.7087 26.5136 42.3925 26.5216C41.3004 26.5468 39.6753 27.2063 39.6585 27.2129C39.5775 27.2447 39.4935 27.2606 39.4126 27.2606ZM43.9031 30.1357C43.8206 30.1357 43.7381 30.1251 43.6572 30.1C41.8915 29.5768 40.077 29.9543 40.0602 29.9583C39.6463 30.0457 39.2369 29.8285 39.1377 29.4749C39.0369 29.12 39.2843 28.7624 39.6921 28.6736C39.7837 28.6538 41.948 28.1956 44.1505 28.8471C44.5507 28.965 44.763 29.3411 44.6271 29.6881C44.5171 29.9622 44.2208 30.1357 43.9031 30.1357ZM16.65 30.688C16.2284 30.688 15.8863 30.3913 15.8863 30.0258C15.8863 29.9689 15.8726 24.2676 14.7698 21.3315C14.6384 20.9832 14.8584 20.6097 15.2586 20.4972C15.6572 20.3833 16.0894 20.574 16.2208 20.9223C17.3984 24.0596 17.4122 29.7834 17.4122 30.0271C17.4137 30.3913 17.0716 30.688 16.65 30.688Z" fill="#F7DAE2"/>
<path d="M11.9899 47.7892C11.6386 47.7892 11.3209 47.5773 11.2446 47.2674C11.2094 47.127 10.3953 43.7963 11.5241 41.6231C12.5337 39.6776 14.0244 38.9307 15.3379 38.2725C16.902 37.4885 18.0322 36.923 18.2568 34.4915C18.2904 34.1273 18.6585 33.8611 19.08 33.8849C19.5001 33.9141 19.8132 34.2332 19.7796 34.5988C19.4909 37.7229 17.768 38.5863 16.1032 39.4207C14.8797 40.0338 13.725 40.6113 12.9186 42.1674C11.9976 43.942 12.7322 46.9562 12.7399 46.988C12.8284 47.3455 12.5673 47.6978 12.1549 47.7746C12.0968 47.7839 12.0434 47.7892 11.9899 47.7892ZM30.9478 52.0973C30.682 52.0973 30.4239 51.9768 30.2819 51.7622C30.0726 51.4457 30.2009 51.0405 30.5675 50.859C30.598 50.8445 33.4359 49.4234 34.3569 47.6488C35.3146 45.8027 34.8625 44.9909 34.1797 43.7619C33.5489 42.6282 32.7639 41.2152 32.9945 38.7294C33.0266 38.3652 33.4069 38.095 33.8162 38.1228C34.2363 38.152 34.5494 38.4711 34.5158 38.8366C34.3203 40.9649 34.948 42.0945 35.5559 43.1884C36.2982 44.5247 37.0008 45.7855 35.7514 48.1931C34.6242 50.365 31.4579 51.945 31.3251 52.0112C31.2044 52.0695 31.0746 52.0973 30.9478 52.0973Z" fill="#D84864"/>
<path d="M29.2493 46.0013C29.0309 46.0013 28.814 45.9192 28.6628 45.763C28.0671 45.1445 27.9357 44.1181 28.3405 43.2639C28.7162 42.472 29.4646 41.9753 30.3994 41.8985C31.6793 41.7926 32.7913 40.753 32.8402 40.1305C32.8692 39.765 33.2373 39.4816 33.6527 39.5134C34.0728 39.5385 34.392 39.8537 34.3645 40.2179C34.2591 41.6045 32.4018 43.0613 30.5445 43.2176C30.1795 43.2467 29.9137 43.4321 29.7533 43.7672C29.5441 44.2069 29.6342 44.7048 29.8358 44.9141C30.1061 45.1948 30.0618 45.612 29.7396 45.8464C29.596 45.951 29.4234 46.0013 29.2493 46.0013ZM41.0101 51.4311C40.9536 51.4311 40.8956 51.4258 40.8391 51.4139C40.4267 51.3318 40.1701 50.9756 40.2663 50.6193C40.3243 50.4048 40.2021 49.9532 39.8661 49.5387C39.5744 49.1798 39.1971 48.944 38.8596 48.9096C37.0405 48.7229 35.0106 45.9378 34.6898 44.6148C34.6028 44.2559 34.867 43.9049 35.2794 43.8294C35.6964 43.7579 36.0981 43.9817 36.1851 44.3406C36.4692 45.5047 38.2288 47.5124 39.0398 47.5932C39.8249 47.674 40.5626 48.0938 41.1155 48.7772C41.6776 49.4685 41.922 50.2896 41.7555 50.9173C41.6715 51.2245 41.3568 51.4311 41.0101 51.4311ZM36.5043 57.9866C36.3165 57.9866 36.1271 57.927 35.9789 57.8052C35.6735 57.5549 35.6597 57.1351 35.9484 56.8689C36.987 55.9167 36.3608 54.4771 35.339 53.5421C34.3966 52.68 32.7103 50.3677 33.5091 48.7229C33.6741 48.3865 34.1216 48.2315 34.5096 48.3693C34.8975 48.511 35.0808 48.899 34.9174 49.2367C34.5081 50.0777 35.5497 51.8086 36.4478 52.6297C38.2822 54.3076 38.5342 56.4226 37.0588 57.7774C36.9091 57.9164 36.7075 57.9866 36.5043 57.9866ZM20.6959 46.7297C20.6104 46.7297 20.5233 46.7165 20.4378 46.6913C20.0407 46.5668 19.8345 46.1881 19.9781 45.8437C20.3584 44.9299 19.7154 44.2651 17.435 43.2096C16.1535 42.6176 15.344 41.6032 15.2126 40.4298C15.0996 39.4141 15.5242 38.434 16.32 37.8725C16.6499 37.6408 17.128 37.6845 17.3937 37.9679C17.6595 38.2513 17.6106 38.6685 17.2838 38.8989C16.8851 39.1797 16.6698 39.7306 16.7339 40.3014C16.7813 40.7278 17.0287 41.5198 18.1544 42.0389C19.6283 42.7223 22.3715 43.991 21.4153 46.29C21.3023 46.5615 21.0075 46.7297 20.6959 46.7297ZM19.0922 52.7555C19.0296 52.7555 18.9685 52.7489 18.9058 52.7356C17.1891 52.3635 16.1321 50.6908 16.5949 49.0844C16.85 48.2024 14.9957 46.4357 14.2198 46.2384C12.1059 45.706 10.994 43.7672 11.3178 42.362C11.4003 42.0031 11.7943 41.7687 12.2159 41.8416C12.6298 41.9131 12.8971 42.2614 12.8146 42.6203C12.6711 43.2427 13.1751 44.5949 14.6475 44.9657C16.0557 45.3233 18.582 47.6515 18.0765 49.4049C17.7909 50.3942 18.4812 51.2775 19.2785 51.4497C19.6879 51.5384 19.9368 51.8986 19.833 52.2522C19.7459 52.5555 19.4343 52.7555 19.0922 52.7555ZM20.9861 38.932C20.1369 38.932 19.2816 38.5466 18.6431 37.8633C17.9283 37.0965 17.6794 36.1681 17.994 35.4384C18.1421 35.0941 18.5836 34.9219 18.9776 35.0504C19.3732 35.1788 19.5733 35.5602 19.4252 35.9032C19.306 36.1774 19.4771 36.6515 19.8299 37.0302C20.1262 37.3468 20.6135 37.662 21.116 37.5997C21.5452 37.5534 21.9224 37.7944 21.985 38.1559C22.0477 38.5175 21.7605 38.8552 21.3435 38.9095C21.2244 38.9241 21.1053 38.932 20.9861 38.932Z" fill="#D84864"/>
<path d="M18.3331 43.3964C18.0414 43.3964 17.7451 43.3434 17.4518 43.2162C17.0745 43.052 16.9218 42.6547 17.1097 42.3276C17.2991 42.0018 17.7558 41.8667 18.1345 42.031C18.4706 42.1819 19.0983 41.8826 19.7062 41.5952C20.5982 41.1754 21.6109 40.6947 22.6709 41.0854C23.0588 41.2271 23.2421 41.6151 23.0787 41.9515C22.9153 42.2905 22.4677 42.4468 22.0782 42.3064C21.6964 42.1647 21.0549 42.468 20.4333 42.7607C19.8147 43.052 19.0846 43.3964 18.3331 43.3964ZM41.0102 56.3974C40.8284 56.3974 40.6451 56.3418 40.4985 56.2266C40.1854 55.9816 40.1594 55.5644 40.4435 55.2916C40.5397 55.1976 40.5886 54.9208 40.4817 54.5923C40.3564 54.2083 40.0113 53.7421 39.4171 53.5872C38.8993 53.4521 38.3724 53.5699 37.8149 53.6931C37.1245 53.8467 36.344 54.0229 35.5528 53.6785C35.1756 53.5156 35.0228 53.117 35.2107 52.7899C35.4001 52.4628 35.8552 52.3277 36.2356 52.4933C36.4998 52.6058 36.8618 52.537 37.4346 52.4098C38.1005 52.2628 38.9314 52.0748 39.8555 52.3198C40.8651 52.582 41.6486 53.2971 41.9526 54.2348C42.1954 54.9896 42.0549 55.7167 41.5768 56.1789C41.4256 56.3246 41.2179 56.3974 41.0102 56.3974ZM42.7667 39.8431C42.4673 39.8431 42.1817 39.6895 42.061 39.4326C41.5463 38.3506 40.8284 37.6355 40.19 37.5679C39.6706 37.5189 39.2384 37.9083 38.9512 38.2473C37.8011 39.6074 34.9709 39.6207 33.6344 39.4366C33.219 39.3796 32.9334 39.0406 32.999 38.679C33.0647 38.3175 33.4603 38.0685 33.8727 38.1281C35.2855 38.3215 37.1627 38.1228 37.7202 37.4633C38.6763 36.3336 39.6768 36.1813 40.3748 36.2529C41.5967 36.3813 42.7254 37.356 43.4708 38.928C43.6312 39.2657 43.4448 39.6538 43.0569 39.7915C42.9622 39.8286 42.8629 39.8431 42.7667 39.8431Z" fill="#D84864"/>
<path d="M77.8797 24.6928L91.6375 54.7329H84.0644L75.3132 32.8129L77.8797 24.6928ZM68.834 51.914C68.6096 52.475 68.5675 52.9518 68.7077 53.3445C68.848 53.7372 69.0864 54.0457 69.423 54.2701C69.7596 54.4665 70.0961 54.5646 70.4327 54.5646H70.8114V54.9854H61.8078V54.5646C61.8078 54.5646 61.8779 54.5646 62.0181 54.5646C62.1303 54.5646 62.1864 54.5646 62.1864 54.5646C62.8315 54.5646 63.4907 54.3683 64.1639 53.9756C64.8651 53.5549 65.4401 52.8677 65.8888 51.914H68.834ZM77.8797 24.6928L78.0479 29.8257L67.6138 54.8592H64.5425L75.4394 30.2044C75.5236 30.0361 75.6638 29.7275 75.8602 29.2788C76.0845 28.8019 76.3089 28.269 76.5333 27.68C76.7858 27.091 77.0101 26.53 77.2065 25.9971C77.4028 25.4361 77.501 25.0013 77.501 24.6928H77.8797ZM82.2973 44.972V46.7391H69.9279V44.972H82.2973ZM82.9284 51.914H90.2912C90.768 52.8677 91.343 53.5549 92.0162 53.9756C92.6894 54.3683 93.3485 54.5646 93.9936 54.5646C93.9936 54.5646 94.0497 54.5646 94.1619 54.5646C94.2741 54.5646 94.3302 54.5646 94.3302 54.5646V54.9854H80.951V54.5646H81.3296C81.8906 54.5646 82.3815 54.3403 82.8022 53.8915C83.2229 53.4146 83.265 52.7555 82.9284 51.914ZM104.419 24.9032L131.262 50.4836L131.767 55.5744L104.924 30.0361L104.419 24.9032ZM104.63 51.9982V54.9854H101.137V54.5646C101.137 54.5646 101.264 54.5646 101.516 54.5646C101.769 54.5646 101.909 54.5646 101.937 54.5646C102.638 54.5646 103.241 54.3122 103.746 53.8073C104.251 53.3025 104.503 52.6994 104.503 51.9982H104.63ZM110.52 51.9982C110.52 52.6994 110.772 53.3025 111.277 53.8073C111.782 54.3122 112.385 54.5646 113.086 54.5646C113.114 54.5646 113.255 54.5646 113.507 54.5646C113.759 54.5646 113.886 54.5646 113.886 54.5646V54.9854H110.394V51.9982H110.52ZM104.419 24.9032L110.478 31.3403L110.52 54.9854H104.503V30.1623C104.503 28.5916 104.419 27.3294 104.251 26.3757C104.083 25.394 103.998 24.9032 103.998 24.9032H104.419ZM131.64 25.5343V50.189C131.64 51.2268 131.682 52.1665 131.767 53.0079C131.851 53.8214 131.935 54.4524 132.019 54.9012C132.103 55.35 132.145 55.5744 132.145 55.5744H131.767L125.666 48.7586V25.5343H131.64ZM135.006 25.5343V25.955C135.006 25.955 134.88 25.955 134.628 25.955C134.375 25.955 134.249 25.955 134.249 25.955C133.548 25.955 132.945 26.2074 132.44 26.7123C131.935 27.1891 131.668 27.7922 131.64 28.5214H131.514V25.5343H135.006ZM122.258 25.5343H125.75V28.5214H125.666C125.638 27.7922 125.372 27.1891 124.867 26.7123C124.39 26.2074 123.787 25.955 123.058 25.955C123.058 25.955 122.931 25.955 122.679 25.955C122.426 25.955 122.286 25.955 122.258 25.955V25.5343ZM174.077 43.2049V50.147C173.403 50.9884 172.394 51.8299 171.047 52.6714C169.729 53.5128 168.144 54.214 166.293 54.775C164.442 55.3079 162.38 55.5744 160.108 55.5744C156.911 55.5744 154.12 54.9573 151.736 53.7232C149.352 52.461 147.501 50.6799 146.182 48.3799C144.864 46.0799 144.205 43.3592 144.205 40.2177C144.205 37.0763 144.85 34.3696 146.14 32.0977C147.458 29.8257 149.324 28.0727 151.736 26.8385C154.176 25.5763 157.051 24.9452 160.361 24.9452C161.904 24.9452 163.404 25.0574 164.863 25.2818C166.321 25.4782 167.668 25.7446 168.902 26.0812C170.136 26.4178 171.16 26.8105 171.973 27.2593L172.057 34.4537H171.678C171.146 32.5464 170.374 31.0318 169.364 29.9099C168.355 28.7599 167.177 27.9464 165.83 27.4696C164.512 26.9647 163.11 26.7123 161.623 26.7123C159.351 26.7123 157.416 27.2733 155.817 28.3952C154.246 29.4891 153.054 31.0599 152.241 33.1074C151.455 35.155 151.063 37.6092 151.063 40.4702C151.063 43.1629 151.427 45.5189 152.157 47.5384C152.914 49.5299 154.008 51.0726 155.438 52.1665C156.869 53.2323 158.608 53.7793 160.655 53.8073C161.693 53.8073 162.689 53.6531 163.643 53.3445C164.624 53.0079 165.48 52.5311 166.209 51.914C166.938 51.297 167.457 50.5397 167.766 49.6421L167.808 43.2049C167.808 41.9427 167.093 41.3116 165.662 41.3116H164.989V40.8909H176.811V41.3116H176.18C174.722 41.3116 174.021 41.9427 174.077 43.2049ZM194.463 25.5343V54.9854H188.152V25.5343H194.463ZM188.278 51.914V54.9854H184.912V54.5646C184.912 54.5646 184.997 54.5646 185.165 54.5646C185.361 54.5646 185.459 54.5646 185.459 54.5646C186.189 54.5646 186.806 54.3122 187.311 53.8073C187.843 53.2744 188.124 52.6433 188.152 51.914H188.278ZM188.278 28.6056H188.152C188.124 27.8763 187.843 27.2593 187.311 26.7544C186.806 26.2215 186.189 25.955 185.459 25.955C185.459 25.955 185.361 25.955 185.165 25.955C184.997 25.955 184.912 25.955 184.912 25.955V25.5343H188.278V28.6056ZM194.337 51.914H194.463C194.491 52.6433 194.757 53.2744 195.262 53.8073C195.795 54.3122 196.426 54.5646 197.156 54.5646C197.156 54.5646 197.24 54.5646 197.408 54.5646C197.576 54.5646 197.675 54.5646 197.703 54.5646V54.9854H194.337V51.914ZM194.337 28.6056V25.5343H197.703V25.955C197.675 25.955 197.576 25.955 197.408 25.955C197.24 25.955 197.156 25.955 197.156 25.955C196.426 25.955 195.795 26.2215 195.262 26.7544C194.757 27.2593 194.491 27.8763 194.463 28.6056H194.337ZM217.465 25.5343V54.9854H211.154V25.5343H217.465ZM228.572 53.1762L229.582 54.9854H217.339V53.1762H228.572ZM227.016 39.5866V41.3537H217.339V39.5866H227.016ZM229.077 25.5343V27.3434H217.339V25.5343H229.077ZM231.644 46.3604L229.708 54.9854H221.462L222.977 53.1762C224.379 53.1762 225.613 52.9098 226.679 52.3768C227.745 51.8159 228.657 51.0305 229.414 50.0208C230.171 48.983 230.774 47.7628 231.223 46.3604H231.644ZM227.016 41.2696V45.3086H226.595V44.972C226.595 43.9342 226.258 43.0787 225.585 42.4055C224.912 41.7324 224.057 41.3818 223.019 41.3537V41.2696H227.016ZM227.016 35.6318V39.6708H223.019V39.5866C224.057 39.5586 224.912 39.208 225.585 38.5348C226.258 37.8336 226.595 36.9641 226.595 35.9263V35.6318H227.016ZM229.077 27.2172V32.1397H228.657V31.6349C228.657 30.3446 228.264 29.3068 227.478 28.5214C226.721 27.7361 225.683 27.3294 224.365 27.3013V27.2172H229.077ZM229.077 24.7769V25.9971L223.944 25.5343C224.561 25.5343 225.207 25.4922 225.88 25.408C226.581 25.3239 227.226 25.2257 227.815 25.1135C228.404 25.0013 228.825 24.8891 229.077 24.7769ZM211.28 51.914V54.9854H207.915V54.5646C207.915 54.5646 207.999 54.5646 208.167 54.5646C208.363 54.5646 208.461 54.5646 208.461 54.5646C209.191 54.5646 209.808 54.3122 210.313 53.8073C210.846 53.2744 211.126 52.6433 211.154 51.914H211.28ZM211.28 28.6056H211.154C211.126 27.8763 210.846 27.2593 210.313 26.7544C209.808 26.2215 209.191 25.955 208.461 25.955C208.461 25.955 208.363 25.955 208.167 25.955C207.999 25.955 207.915 25.955 207.915 25.955V25.5343H211.28V28.6056ZM287.089 42.7001L287.468 49.9366C286.851 50.9744 286.023 51.914 284.985 52.7555C283.948 53.597 282.657 54.2842 281.115 54.8171C279.572 55.322 277.749 55.5744 275.645 55.5744C272.223 55.5463 269.222 54.9293 266.642 53.7232C264.089 52.489 262.112 50.736 260.709 48.4641C259.307 46.1921 258.606 43.4433 258.606 40.2177C258.606 37.0763 259.293 34.3696 260.667 32.0977C262.042 29.7977 264.005 28.0306 266.557 26.7965C269.138 25.5623 272.209 24.9452 275.771 24.9452C278.015 24.9452 280.021 25.1696 281.788 25.6184C283.583 26.0672 285.084 26.6141 286.29 27.2593L286.332 34.4537H285.953C285.196 31.6769 283.962 29.6995 282.251 28.5214C280.54 27.3154 278.534 26.7123 276.234 26.7123C273.99 26.7123 272.069 27.2593 270.47 28.3532C268.871 29.4471 267.637 30.9897 266.768 32.9812C265.898 34.9726 265.463 37.3568 265.463 40.1336C265.463 42.9104 265.87 45.3086 266.684 47.3281C267.525 49.3476 268.703 50.9183 270.218 52.0403C271.76 53.1622 273.57 53.7512 275.645 53.8073C277.805 53.8073 279.628 53.4567 281.115 52.7555C282.601 52.0543 283.793 50.8903 284.691 49.2634C285.616 47.6366 286.304 45.4488 286.752 42.7001H287.089ZM311.166 24.6928L324.924 54.7329H317.351L308.6 32.8129L311.166 24.6928ZM302.121 51.914C301.896 52.475 301.854 52.9518 301.994 53.3445C302.135 53.7372 302.373 54.0457 302.71 54.2701C303.046 54.4665 303.383 54.5646 303.719 54.5646H304.098V54.9854H295.094V54.5646C295.094 54.5646 295.165 54.5646 295.305 54.5646C295.417 54.5646 295.473 54.5646 295.473 54.5646C296.118 54.5646 296.777 54.3683 297.45 53.9756C298.152 53.5549 298.727 52.8677 299.175 51.914H302.121ZM311.166 24.6928L311.335 29.8257L300.9 54.8592H297.829L308.726 30.2044C308.81 30.0361 308.95 29.7275 309.147 29.2788C309.371 28.8019 309.596 28.269 309.82 27.68C310.072 27.091 310.297 26.53 310.493 25.9971C310.689 25.4361 310.788 25.0013 310.788 24.6928H311.166ZM315.584 44.972V46.7391H303.214V44.972H315.584ZM316.215 51.914H323.578C324.055 52.8677 324.63 53.5549 325.303 53.9756C325.976 54.3683 326.635 54.5646 327.28 54.5646C327.28 54.5646 327.336 54.5646 327.449 54.5646C327.561 54.5646 327.617 54.5646 327.617 54.5646V54.9854H314.238V54.5646H314.616C315.177 54.5646 315.668 54.3403 316.089 53.8915C316.51 53.4146 316.552 52.7555 316.215 51.914ZM337.706 24.9032L364.548 50.4836L365.053 55.5744L338.211 30.0361L337.706 24.9032ZM337.916 51.9982V54.9854H334.424V54.5646C334.424 54.5646 334.55 54.5646 334.803 54.5646C335.055 54.5646 335.195 54.5646 335.224 54.5646C335.925 54.5646 336.528 54.3122 337.033 53.8073C337.538 53.3025 337.79 52.6994 337.79 51.9982H337.916ZM343.806 51.9982C343.806 52.6994 344.059 53.3025 344.564 53.8073C345.069 54.3122 345.672 54.5646 346.373 54.5646C346.401 54.5646 346.541 54.5646 346.794 54.5646C347.046 54.5646 347.172 54.5646 347.172 54.5646V54.9854H343.68V51.9982H343.806ZM337.706 24.9032L343.764 31.3403L343.806 54.9854H337.79V30.1623C337.79 28.5916 337.706 27.3294 337.538 26.3757C337.369 25.394 337.285 24.9032 337.285 24.9032H337.706ZM364.927 25.5343V50.189C364.927 51.2268 364.969 52.1665 365.053 53.0079C365.137 53.8214 365.222 54.4524 365.306 54.9012C365.39 55.35 365.432 55.5744 365.432 55.5744H365.053L358.953 48.7586V25.5343H364.927ZM368.293 25.5343V25.955C368.293 25.955 368.167 25.955 367.914 25.955C367.662 25.955 367.536 25.955 367.536 25.955C366.834 25.955 366.231 26.2074 365.726 26.7123C365.222 27.1891 364.955 27.7922 364.927 28.5214H364.801V25.5343H368.293ZM355.545 25.5343H359.037V28.5214H358.953C358.925 27.7922 358.658 27.1891 358.153 26.7123C357.676 26.2074 357.073 25.955 356.344 25.955C356.344 25.955 356.218 25.955 355.965 25.955C355.713 25.955 355.573 25.955 355.545 25.955V25.5343ZM394.194 24.9452C397.56 24.9452 400.477 25.5763 402.946 26.8385C405.442 28.0727 407.363 29.8257 408.71 32.0977C410.084 34.3696 410.771 37.0903 410.771 40.2598C410.771 43.4013 410.084 46.122 408.71 48.422C407.363 50.6939 405.442 52.461 402.946 53.7232C400.477 54.9573 397.56 55.5744 394.194 55.5744C390.829 55.5744 387.897 54.9573 385.401 53.7232C382.933 52.461 381.026 50.6939 379.679 48.422C378.333 46.15 377.66 43.4293 377.66 40.2598C377.66 37.1184 378.333 34.4117 379.679 32.1397C381.026 29.8397 382.933 28.0727 385.401 26.8385C387.897 25.5763 390.829 24.9452 394.194 24.9452ZM394.194 53.8073C396.186 53.8073 397.897 53.2604 399.327 52.1665C400.758 51.0445 401.866 49.4738 402.651 47.4543C403.436 45.4348 403.829 43.0366 403.829 40.2598C403.829 37.483 403.436 35.0848 402.651 33.0653C401.866 31.0458 400.758 29.4891 399.327 28.3952C397.897 27.2733 396.186 26.7123 394.194 26.7123C392.231 26.7123 390.52 27.2733 389.062 28.3952C387.631 29.4891 386.523 31.0458 385.738 33.0653C384.952 35.0848 384.56 37.483 384.56 40.2598C384.56 43.0366 384.952 45.4348 385.738 47.4543C386.523 49.4738 387.631 51.0445 389.062 52.1665C390.52 53.2604 392.231 53.8073 394.194 53.8073Z" fill="url(#paint0_linear_48_160)"/>
<defs>
<linearGradient id="paint0_linear_48_160" x1="62.9858" y1="35.9854" x2="412.986" y2="35.7321" gradientUnits="userSpaceOnUse">
<stop stop-color="#200122"/>
<stop offset="1" stop-color="#6F0000"/>
</linearGradient>
</defs>
</svg>
