<svg width="32" height="33" viewBox="0 0 32 33" fill="none" xmlns="http://www.w3.org/2000/svg">
<g clip-path="url(#clip0_23_430)">
<path d="M26.1138 9.61424L26.13 9.59799C26.1444 9.58361 26.1507 9.56424 26.1469 9.54549C26.0928 9.26591 25.9442 9.07507 25.7013 8.97299C25.6175 8.93799 25.5125 8.91799 25.3863 8.91299C25.2984 8.90966 25.1905 8.90799 25.0625 8.90799C18.9425 8.90799 12.8228 8.90632 6.70317 8.90299C6.5165 8.90299 6.35629 8.94236 6.22254 9.02111C5.94421 9.1857 5.81983 9.43986 5.84942 9.78361C5.86108 9.91778 5.86129 10.044 5.85004 10.1624C5.84754 10.1849 5.86567 10.2049 5.88817 10.2049L26.0594 10.2011C26.0763 10.2011 26.09 10.1874 26.0907 10.1699L26.0975 9.65424C26.0975 9.63924 26.1032 9.62486 26.1138 9.61424Z" stroke="#FFFAFF" stroke-width="2"/>
<path d="M5.85563 21.483C5.85563 21.5017 5.87125 21.5174 5.89 21.5174C8.30708 21.5174 10.724 21.5174 13.1406 21.5174C13.2519 21.5174 13.36 21.5759 13.465 21.693C13.6029 21.8476 13.7362 22.0072 13.865 22.1717C13.8812 22.1924 13.9062 22.2049 13.9325 22.2049L18.0275 22.2011C18.0475 22.2011 18.0656 22.1924 18.0781 22.1774C18.2169 22.0099 18.356 21.8428 18.4956 21.6761C18.4985 21.6724 18.5179 21.6459 18.5537 21.5967C18.615 21.5122 18.701 21.4663 18.8119 21.4592C18.921 21.4522 19.0306 21.4492 19.1406 21.4505C21.4269 21.4713 23.7329 21.4726 26.0588 21.4542C26.08 21.4542 26.0975 21.4367 26.0975 21.4155C26.0933 20.2392 26.0919 19.0594 26.0931 17.8761C26.0931 17.8732 26.0969 17.6861 26.1044 17.3149C26.1085 17.0978 26.105 16.858 26.0938 16.5955C26.0867 16.4301 26.0871 16.2424 26.095 16.0324C26.1042 15.7969 26.1079 15.6097 26.1063 15.4705C26.0913 14.0088 26.0873 12.5226 26.0944 11.0117C26.0944 10.9892 26.0762 10.9711 26.0537 10.9711C23.4275 10.9507 20.821 10.949 18.2344 10.9661C17.7915 10.969 17.375 10.9701 16.985 10.9692C13.6333 10.9622 10.2817 10.9574 6.93 10.9549C6.925 10.9549 6.77375 10.9592 6.47625 10.968C6.29625 10.9734 6.10604 10.9672 5.90562 10.9492C5.8725 10.9461 5.84375 10.9724 5.84375 11.0055L5.85563 21.483Z" stroke="#FFFAFF" stroke-width="2"/>
<path d="M27.2431 22.2174L19.0725 22.2167C19.0569 22.2167 19.0413 22.2242 19.0306 22.2367C18.9044 22.3897 18.7765 22.5417 18.6469 22.693C18.5436 22.8138 18.4894 22.8761 18.4844 22.8799C18.4202 22.9299 18.3369 22.9549 18.2344 22.9549C16.7686 22.9549 15.3027 22.9549 13.8369 22.9549C13.7361 22.9549 13.659 22.9434 13.6056 22.9205C13.5319 22.8884 13.4679 22.8399 13.4138 22.7749C13.2617 22.5932 13.1192 22.4186 12.9863 22.2511C12.9631 22.2217 12.9275 22.2049 12.8906 22.2049L4.72314 22.2242C4.70377 22.2242 4.68627 22.2361 4.67939 22.2536C4.62606 22.3944 4.64835 22.5305 4.74627 22.6617C5.13377 23.1826 5.39918 23.5269 5.54252 23.6949C5.6371 23.8057 5.76356 23.8611 5.92189 23.8611C12.6094 23.8611 19.2969 23.8605 25.9844 23.8592C26.1602 23.8588 26.2996 23.7957 26.4025 23.6699C26.5434 23.4965 26.8131 23.1351 27.2119 22.5855C27.2215 22.5726 27.2288 22.5538 27.2338 22.5292L27.2844 22.2742C27.2906 22.2449 27.2706 22.2174 27.2431 22.2174Z" stroke="#FFFAFF" stroke-width="2"/>
<path d="M22.2969 13.4305C22.2969 12.8136 21.7969 12.3136 21.18 12.3136H10.82C10.2031 12.3136 9.70312 12.8136 9.70312 13.4305V19.3967C9.70312 20.0136 10.2031 20.5136 10.82 20.5136H21.18C21.7969 20.5136 22.2969 20.0136 22.2969 19.3967V13.4305Z" stroke="#FFFAFF" stroke-width="2"/>
<path d="M7.58749 16.453C7.56312 16.4324 7.56249 16.3949 7.58624 16.3736C7.89624 16.1032 8.19687 15.8347 8.48812 15.568C8.56895 15.4942 8.60103 15.4057 8.58437 15.3024C8.57062 15.2211 8.52812 15.1467 8.45687 15.0792C8.32687 14.9563 8.19103 14.939 8.04937 15.0274C8.04478 15.0303 7.95187 15.1099 7.77062 15.2661C7.47062 15.5253 7.17395 15.7882 6.88062 16.0549C6.72978 16.1919 6.67708 16.3582 6.72249 16.5536C6.72687 16.573 6.73812 16.5911 6.75374 16.6055C7.32708 17.1392 7.76458 17.5201 8.06624 17.748C8.14832 17.8097 8.24041 17.8267 8.34249 17.7992C8.43374 17.7747 8.4977 17.7199 8.53437 17.6349C8.56937 17.5528 8.57353 17.4684 8.54687 17.3817C8.52812 17.3222 8.48187 17.2572 8.40812 17.1867C8.13687 16.9284 7.86333 16.6838 7.58749 16.453Z" stroke="#FFFAFF" stroke-width="2"/>
<path d="M23.6213 17.8024C23.7242 17.8699 23.83 17.8726 23.9388 17.8105C23.9525 17.803 23.9663 17.7874 23.9782 17.7667C24.0036 17.7222 24.0513 17.669 24.1213 17.6074C24.4509 17.3153 24.7807 17.0236 25.1107 16.7324C25.1861 16.6657 25.2359 16.6061 25.26 16.5536C25.295 16.4769 25.3075 16.3967 25.2975 16.313C25.2875 16.2351 25.2409 16.1582 25.1575 16.0824C24.7984 15.7549 24.4317 15.4361 24.0575 15.1261C23.9679 15.0519 23.8867 15.0103 23.8138 15.0011C23.7009 14.9869 23.6073 15.0197 23.5332 15.0992C23.4707 15.1659 23.4377 15.2461 23.4344 15.3399C23.4307 15.4444 23.4669 15.5309 23.5432 15.5992C23.8498 15.8759 24.1536 16.1488 24.4544 16.418C24.4825 16.443 24.4819 16.4874 24.4532 16.5124C24.1802 16.7465 23.9163 16.9811 23.6613 17.2161C23.5563 17.3128 23.4934 17.3974 23.4725 17.4699C23.4346 17.6019 23.4842 17.7128 23.6213 17.8024Z" stroke="#FFFAFF" stroke-width="2"/>
<path d="M21.5469 13.4192C21.5469 13.223 21.3881 13.0642 21.1919 13.0642H10.8081C10.6119 13.0642 10.4531 13.223 10.4531 13.4192V19.4092C10.4531 19.6055 10.6119 19.7642 10.8081 19.7642H21.1919C21.3881 19.7642 21.5469 19.6055 21.5469 19.4092V13.4192Z" stroke="#FFFAFF" stroke-width="2"/>
<path d="M14.4538 16.6099C14.2913 16.514 14.275 16.3978 14.405 16.2611C14.5867 16.0703 14.6852 15.8484 14.7007 15.5955C14.7102 15.4413 14.6671 15.3072 14.5713 15.193C14.5582 15.1774 14.55 15.158 14.5482 15.1386C14.4786 14.3719 14.0511 14.0007 13.2657 14.0249C12.6232 14.0449 12.2292 14.4061 12.0838 15.1086C12.0788 15.134 12.0723 15.159 12.0644 15.1836C11.9452 15.5474 11.9952 15.8684 12.2144 16.1467C12.2782 16.2276 12.3286 16.3426 12.3657 16.4917C12.3707 16.5099 12.3619 16.5292 12.345 16.5374C12.2613 16.5811 12.1813 16.6222 12.105 16.6605C12.0517 16.6876 11.9682 16.7197 11.8544 16.7567C11.6386 16.8272 11.4644 16.9413 11.3319 17.0992C11.1357 17.3338 11.0182 17.6153 10.9794 17.9436C10.9623 18.0882 10.9538 18.1686 10.9538 18.1849C10.9525 18.2753 10.9773 18.3547 11.0282 18.423C11.0794 18.4917 11.1752 18.5447 11.3157 18.5817C12.6582 18.938 14.0029 18.9438 15.35 18.5992C15.485 18.5647 15.5763 18.5249 15.6238 18.4799C15.7 18.4069 15.7369 18.3049 15.7344 18.1736C15.7294 17.9153 15.6863 17.6847 15.605 17.4817C15.4563 17.1122 15.1923 16.8682 14.8132 16.7499C14.639 16.6953 14.5192 16.6486 14.4538 16.6099Z" stroke="#FFFAFF" stroke-width="2"/>
<path d="M16.1056 14.1855C16.0144 14.3892 16.04 14.5378 16.1825 14.6311C16.2575 14.6803 16.3808 14.7049 16.5525 14.7049C17.7925 14.7049 19.0325 14.7049 20.2725 14.7049C20.4346 14.7049 20.5429 14.693 20.5975 14.6692C20.7258 14.6134 20.7754 14.4963 20.7462 14.318C20.7271 14.203 20.6729 14.1192 20.5837 14.0667C20.5275 14.0338 20.4373 14.0174 20.3131 14.0174C19.0627 14.0174 17.8121 14.0174 16.5612 14.0174C16.4129 14.0174 16.3306 14.0188 16.3144 14.0217C16.216 14.0397 16.1465 14.0942 16.1056 14.1855Z" stroke="#FFFAFF" stroke-width="2"/>
<path d="M16.0675 15.5261C16.0458 15.6707 16.0937 15.7782 16.2112 15.8486C16.2779 15.8882 16.3806 15.908 16.5194 15.908C17.8044 15.908 19.0896 15.908 20.375 15.908C20.6596 15.908 20.784 15.7878 20.7481 15.5474C20.7323 15.4424 20.6919 15.3609 20.6269 15.303C20.5515 15.2367 20.4575 15.2067 20.345 15.213C20.2637 15.218 20.221 15.2205 20.2169 15.2205C18.9965 15.2155 17.7762 15.2155 16.5562 15.2205C16.5529 15.2205 16.5154 15.2184 16.4437 15.2142C16.3492 15.2088 16.2683 15.2317 16.2012 15.283C16.1287 15.338 16.0842 15.419 16.0675 15.5261Z" stroke="#FFFAFF" stroke-width="2"/>
<path d="M18.0231 19.1167C18.1856 19.1359 18.2925 19.0613 18.3438 18.893C18.3679 18.8126 18.3806 18.7711 18.3819 18.7686C18.5927 18.1903 18.7988 17.6103 19 17.0286C19.0409 16.9107 19.0459 16.8188 19.015 16.753C18.9675 16.6513 18.8688 16.604 18.7188 16.6111C18.6192 16.6157 18.5486 16.6503 18.5069 16.7149C18.504 16.719 18.479 16.7859 18.4319 16.9155C18.2265 17.4797 18.0254 18.0453 17.8288 18.6124C17.8271 18.6161 17.8113 18.6534 17.7813 18.7242C17.74 18.8205 17.7429 18.9067 17.79 18.983C17.8379 19.0597 17.9156 19.1042 18.0231 19.1167Z" stroke="#FFFAFF" stroke-width="2"/>
<path d="M19.7406 17.8786C19.7902 17.904 19.7896 17.9269 19.7387 17.9474C19.5646 18.0186 19.4037 18.1074 19.2562 18.2136C19.2387 18.2261 19.2262 18.243 19.22 18.2611C19.1804 18.3807 19.1987 18.5005 19.275 18.6205C19.2994 18.6592 19.3475 18.673 19.3862 18.653L20.3675 18.138C20.4125 18.1142 20.4444 18.0636 20.4531 18.0024L20.4956 17.6936C20.5077 17.6094 20.4781 17.5509 20.4069 17.518C20.1635 17.4042 19.9212 17.2892 19.68 17.173C19.5283 17.1001 19.4221 17.0682 19.3612 17.0774C19.2292 17.0978 19.1815 17.2388 19.2181 17.5005C19.2294 17.5817 19.2696 17.6399 19.3387 17.6749L19.7406 17.8786Z" stroke="#FFFAFF" stroke-width="2"/>
<path d="M17.1569 17.9967C17.1061 17.9734 17.1069 17.9505 17.1594 17.928C17.3236 17.8584 17.4782 17.7726 17.6232 17.6705C17.724 17.5992 17.725 17.5405 17.6263 17.4942C17.6088 17.4861 17.5957 17.4705 17.5919 17.4517C17.5544 17.2709 17.4605 17.2238 17.31 17.3105C17.2467 17.3472 17.2136 17.3661 17.2107 17.3674C16.9661 17.4915 16.723 17.6182 16.4813 17.7474C16.4482 17.7649 16.425 17.7974 16.4188 17.8349C16.3996 17.949 16.4105 18.0374 16.4513 18.0999C16.465 18.1207 16.5294 18.1686 16.6444 18.2436C17.0527 18.5115 17.3119 18.6757 17.4219 18.7361C17.5115 18.7853 17.5836 18.7805 17.6382 18.7217C17.6707 18.6863 17.6894 18.6284 17.6944 18.548C17.699 18.4738 17.7021 18.393 17.7038 18.3055C17.7044 18.2724 17.6844 18.2417 17.6525 18.2267L17.1569 17.9967Z" stroke="#FFFAFF" stroke-width="2"/>
<path d="M13.7225 14.8105C13.66 14.758 13.5802 14.7278 13.4832 14.7199C13.4048 14.7132 13.3221 14.7115 13.235 14.7149C13.0546 14.7215 12.9044 14.7978 12.7844 14.9436C12.7382 15.0003 12.7221 15.0647 12.7363 15.1367C12.7654 15.2826 12.7611 15.4294 12.7232 15.5774C12.7182 15.5967 12.7075 15.6149 12.6919 15.6286L12.6325 15.6836C12.6213 15.6942 12.6225 15.7124 12.6357 15.7205C12.749 15.7905 12.8223 15.8699 12.8557 15.9586C12.9215 16.1349 12.9669 16.2488 12.9919 16.3005C13.0336 16.3863 13.0925 16.4524 13.1688 16.4986C13.2488 16.5469 13.3271 16.5605 13.4038 16.5392C13.4829 16.5176 13.5515 16.4634 13.6094 16.3767C13.7082 16.2288 13.7694 16.113 13.7932 16.0292C13.819 15.9359 13.8686 15.8782 13.9419 15.8561C13.9644 15.8499 13.9825 15.8386 13.9925 15.8255C14.0496 15.7509 14.0567 15.6805 14.0138 15.6142C13.9567 15.5259 13.9265 15.4757 13.9232 15.4636C13.8965 15.3753 13.8848 15.2838 13.8882 15.1892C13.8936 15.0334 13.8384 14.9072 13.7225 14.8105Z" stroke="#FFFAFF" stroke-width="2"/>
<path d="M11.6619 17.9842C12.8006 18.2863 13.9306 18.2857 15.0519 17.9824C15.0694 17.978 15.08 17.9611 15.0769 17.9442C15.0119 17.5997 14.8246 17.3715 14.515 17.2599C14.3213 17.1899 14.2225 17.154 14.2188 17.1524C14.0921 17.0932 13.9588 17.0238 13.8188 16.9442C13.7994 16.9336 13.7769 16.9336 13.7575 16.9442C13.51 17.0847 13.2492 17.0844 12.975 16.9436C12.9569 16.9349 12.9356 16.9349 12.9188 16.9449C12.6917 17.0744 12.46 17.1786 12.2238 17.2574C12.0375 17.319 11.9117 17.3803 11.8463 17.4411C11.72 17.5582 11.6406 17.7113 11.6081 17.9005C11.6019 17.938 11.625 17.9742 11.6619 17.9842Z" stroke="#FFFAFF" stroke-width="2"/>
<path d="M15.5662 0.361115C15.8579 0.361115 16.1496 0.361115 16.4412 0.361115C19.7692 0.480281 22.7406 1.48674 25.3556 3.38049C28.3156 5.52424 30.3273 8.38757 31.3906 11.9705C31.7631 13.2259 31.9662 14.6022 32 16.0992C32 16.3026 32 16.5057 32 16.7086C31.945 18.6769 31.5792 20.5078 30.9025 22.2011C29.5287 25.6378 27.241 28.3005 24.0394 30.1892C23.6731 30.4055 23.3058 30.6019 22.9375 30.7786C20.8833 31.7636 18.705 32.2911 16.4025 32.3611C16.1471 32.3611 15.8919 32.3611 15.6369 32.3611C12.4131 32.2636 9.51458 31.3249 6.94125 29.5449C3.74917 27.3365 1.61771 24.3274 0.546875 20.5174C0.228958 19.3865 0.0466667 18.1457 0 16.7949C0 16.5344 0 16.274 0 16.0136C0.136667 12.0532 1.49188 8.6207 4.06563 5.71611C4.34146 5.40486 4.63104 5.10528 4.93437 4.81736C7.87687 2.02195 11.4208 0.536531 15.5662 0.361115ZM26.1138 9.61424L26.13 9.59799C26.1444 9.58361 26.1506 9.56424 26.1469 9.54549C26.0927 9.26591 25.9442 9.07507 25.7013 8.97299C25.6175 8.93799 25.5125 8.91799 25.3862 8.91299C25.2983 8.90966 25.1904 8.90799 25.0625 8.90799C18.9425 8.90799 12.8227 8.90632 6.70312 8.90299C6.51646 8.90299 6.35625 8.94236 6.2225 9.02111C5.94417 9.1857 5.81979 9.43986 5.84937 9.78361C5.86104 9.91778 5.86125 10.044 5.85 10.1624C5.8475 10.1849 5.86562 10.2049 5.88812 10.2049L26.0594 10.2011C26.0763 10.2011 26.09 10.1874 26.0906 10.1699L26.0975 9.65424C26.0975 9.63924 26.1031 9.62486 26.1138 9.61424ZM5.85563 21.483C5.85563 21.5017 5.87125 21.5174 5.89 21.5174C8.30708 21.5174 10.724 21.5174 13.1406 21.5174C13.2519 21.5174 13.36 21.5759 13.465 21.693C13.6029 21.8476 13.7362 22.0072 13.865 22.1717C13.8812 22.1924 13.9062 22.2049 13.9325 22.2049L18.0275 22.2011C18.0475 22.2011 18.0656 22.1924 18.0781 22.1774C18.2169 22.0099 18.356 21.8428 18.4956 21.6761C18.4985 21.6724 18.5179 21.6459 18.5537 21.5967C18.615 21.5122 18.701 21.4663 18.8119 21.4592C18.921 21.4522 19.0306 21.4492 19.1406 21.4505C21.4269 21.4713 23.7329 21.4726 26.0588 21.4542C26.08 21.4542 26.0975 21.4367 26.0975 21.4155C26.0933 20.2392 26.0919 19.0594 26.0931 17.8761C26.0931 17.8732 26.0969 17.6861 26.1044 17.3149C26.1085 17.0978 26.105 16.858 26.0938 16.5955C26.0867 16.4301 26.0871 16.2424 26.095 16.0324C26.1042 15.7969 26.1079 15.6097 26.1063 15.4705C26.0913 14.0088 26.0873 12.5226 26.0944 11.0117C26.0944 10.9892 26.0762 10.9711 26.0537 10.9711C23.4275 10.9507 20.821 10.949 18.2344 10.9661C17.7915 10.969 17.375 10.9701 16.985 10.9692C13.6333 10.9622 10.2817 10.9574 6.93 10.9549C6.925 10.9549 6.77375 10.9592 6.47625 10.968C6.29625 10.9734 6.10604 10.9672 5.90562 10.9492C5.8725 10.9461 5.84375 10.9724 5.84375 11.0055L5.85563 21.483ZM27.2431 22.2174L19.0725 22.2167C19.0569 22.2167 19.0413 22.2242 19.0306 22.2367C18.9044 22.3897 18.7765 22.5417 18.6469 22.693C18.5435 22.8138 18.4894 22.8761 18.4844 22.8799C18.4202 22.9299 18.3369 22.9549 18.2344 22.9549C16.7685 22.9549 15.3027 22.9549 13.8369 22.9549C13.736 22.9549 13.659 22.9434 13.6056 22.9205C13.5319 22.8884 13.4679 22.8399 13.4137 22.7749C13.2617 22.5932 13.1192 22.4186 12.9862 22.2511C12.9631 22.2217 12.9275 22.2049 12.8906 22.2049L4.72312 22.2242C4.70375 22.2242 4.68625 22.2361 4.67938 22.2536C4.62604 22.3944 4.64833 22.5305 4.74625 22.6617C5.13375 23.1826 5.39917 23.5269 5.5425 23.6949C5.63708 23.8057 5.76354 23.8611 5.92188 23.8611C12.6094 23.8611 19.2969 23.8605 25.9844 23.8592C26.1602 23.8588 26.2996 23.7957 26.4025 23.6699C26.5433 23.4965 26.8131 23.1351 27.2119 22.5855C27.2215 22.5726 27.2288 22.5538 27.2337 22.5292L27.2844 22.2742C27.2906 22.2449 27.2706 22.2174 27.2431 22.2174Z" fill="#FFFAFF"/>
<path d="M26.0975 9.65424L26.0906 10.1699C26.09 10.1874 26.0762 10.2011 26.0594 10.2011L5.88811 10.2049C5.86561 10.2049 5.84748 10.1849 5.84998 10.1624C5.86123 10.044 5.86102 9.91778 5.84936 9.78361C5.81977 9.43986 5.94415 9.1857 6.22248 9.02111C6.35623 8.94236 6.51644 8.90299 6.70311 8.90299C12.8227 8.90632 18.9425 8.90799 25.0625 8.90799C25.1904 8.90799 25.2983 8.90966 25.3862 8.91299C25.5125 8.91799 25.6175 8.93799 25.7012 8.97299C25.9441 9.07507 26.0927 9.26591 26.1469 9.54549C26.1506 9.56424 26.1444 9.58361 26.13 9.59799L26.1137 9.61424C26.1031 9.62486 26.0975 9.63924 26.0975 9.65424Z" fill="#03010F"/>
<path d="M5.85563 21.483L5.84375 11.0055C5.84375 10.9724 5.8725 10.9461 5.90562 10.9492C6.10604 10.9672 6.29625 10.9734 6.47625 10.968C6.77375 10.9592 6.925 10.9549 6.93 10.9549C10.2817 10.9574 13.6333 10.9622 16.985 10.9692C17.375 10.9701 17.7915 10.969 18.2344 10.9661C20.821 10.949 23.4275 10.9507 26.0537 10.9711C26.0762 10.9711 26.0944 10.9892 26.0944 11.0117C26.0873 12.5226 26.0913 14.0088 26.1063 15.4705C26.1079 15.6097 26.1042 15.7969 26.095 16.0324C26.0871 16.2424 26.0867 16.4301 26.0938 16.5955C26.105 16.858 26.1085 17.0978 26.1044 17.3149C26.0969 17.6861 26.0931 17.8732 26.0931 17.8761C26.0919 19.0594 26.0933 20.2392 26.0975 21.4155C26.0975 21.4367 26.08 21.4542 26.0588 21.4542C23.7329 21.4726 21.4269 21.4713 19.1406 21.4505C19.0306 21.4492 18.921 21.4522 18.8119 21.4592C18.701 21.4663 18.615 21.5122 18.5537 21.5967C18.5179 21.6459 18.4985 21.6724 18.4956 21.6761C18.356 21.8428 18.2169 22.0099 18.0781 22.1774C18.0656 22.1924 18.0475 22.2011 18.0275 22.2011L13.9325 22.2049C13.9062 22.2049 13.8812 22.1924 13.865 22.1717C13.7362 22.0072 13.6029 21.8476 13.465 21.693C13.36 21.5759 13.2519 21.5174 13.1406 21.5174C10.724 21.5174 8.30708 21.5174 5.89 21.5174C5.87125 21.5174 5.85563 21.5017 5.85563 21.483ZM22.2969 13.4305C22.2969 12.8136 21.7969 12.3136 21.18 12.3136H10.82C10.2031 12.3136 9.70312 12.8136 9.70312 13.4305V19.3967C9.70312 20.0136 10.2031 20.5136 10.82 20.5136H21.18C21.7969 20.5136 22.2969 20.0136 22.2969 19.3967V13.4305ZM7.5875 16.453C7.56313 16.4324 7.5625 16.3949 7.58625 16.3736C7.89625 16.1032 8.19687 15.8347 8.48812 15.568C8.56896 15.4942 8.60104 15.4057 8.58438 15.3024C8.57063 15.2211 8.52812 15.1467 8.45687 15.0792C8.32687 14.9563 8.19104 14.939 8.04937 15.0274C8.04479 15.0303 7.95188 15.1099 7.77063 15.2661C7.47063 15.5253 7.17396 15.7882 6.88062 16.0549C6.72979 16.1919 6.67708 16.3582 6.7225 16.5536C6.72687 16.573 6.73812 16.5911 6.75375 16.6055C7.32708 17.1392 7.76458 17.5201 8.06625 17.748C8.14833 17.8097 8.24042 17.8267 8.3425 17.7992C8.43375 17.7747 8.49771 17.7199 8.53438 17.6349C8.56938 17.5528 8.57354 17.4684 8.54688 17.3817C8.52813 17.3222 8.48187 17.2572 8.40812 17.1867C8.13687 16.9284 7.86333 16.6838 7.5875 16.453ZM23.6213 17.8024C23.7242 17.8699 23.83 17.8726 23.9387 17.8105C23.9525 17.803 23.9662 17.7874 23.9781 17.7667C24.0035 17.7222 24.0513 17.669 24.1213 17.6074C24.4508 17.3153 24.7806 17.0236 25.1106 16.7324C25.186 16.6657 25.2358 16.6061 25.26 16.5536C25.295 16.4769 25.3075 16.3967 25.2975 16.313C25.2875 16.2351 25.2408 16.1582 25.1575 16.0824C24.7983 15.7549 24.4317 15.4361 24.0575 15.1261C23.9679 15.0519 23.8867 15.0103 23.8137 15.0011C23.7008 14.9869 23.6073 15.0197 23.5331 15.0992C23.4706 15.1659 23.4377 15.2461 23.4344 15.3399C23.4306 15.4444 23.4669 15.5309 23.5431 15.5992C23.8498 15.8759 24.1535 16.1488 24.4544 16.418C24.4825 16.443 24.4819 16.4874 24.4531 16.5124C24.1802 16.7465 23.9162 16.9811 23.6612 17.2161C23.5562 17.3128 23.4933 17.3974 23.4725 17.4699C23.4346 17.6019 23.4842 17.7128 23.6213 17.8024Z" fill="#03010F"/>
<path d="M22.2969 19.3967C22.2969 20.0136 21.7969 20.5136 21.18 20.5136H10.82C10.2031 20.5136 9.70312 20.0136 9.70312 19.3967V13.4305C9.70312 12.8136 10.2031 12.3136 10.82 12.3136H21.18C21.7969 12.3136 22.2969 12.8136 22.2969 13.4305V19.3967ZM21.5469 13.4192C21.5469 13.223 21.3881 13.0642 21.1919 13.0642H10.8081C10.6119 13.0642 10.4531 13.223 10.4531 13.4192V19.4092C10.4531 19.6055 10.6119 19.7642 10.8081 19.7642H21.1919C21.3881 19.7642 21.5469 19.6055 21.5469 19.4092V13.4192Z" fill="#FFFAFF"/>
<path d="M21.5469 19.4092C21.5469 19.6055 21.3881 19.7642 21.1919 19.7642H10.8081C10.6119 19.7642 10.4531 19.6055 10.4531 19.4092V13.4192C10.4531 13.223 10.6119 13.0642 10.8081 13.0642H21.1919C21.3881 13.0642 21.5469 13.223 21.5469 13.4192V19.4092ZM14.4537 16.6099C14.2912 16.514 14.275 16.3978 14.405 16.2611C14.5867 16.0703 14.6852 15.8484 14.7006 15.5955C14.7102 15.4413 14.6671 15.3072 14.5712 15.193C14.5581 15.1774 14.55 15.158 14.5481 15.1386C14.4785 14.3719 14.051 14.0007 13.2656 14.0249C12.6231 14.0449 12.2292 14.4061 12.0837 15.1086C12.0787 15.134 12.0723 15.159 12.0644 15.1836C11.9452 15.5474 11.9952 15.8684 12.2144 16.1467C12.2781 16.2276 12.3285 16.3426 12.3656 16.4917C12.3706 16.5099 12.3619 16.5292 12.345 16.5374C12.2613 16.5811 12.1812 16.6222 12.105 16.6605C12.0517 16.6876 11.9681 16.7197 11.8544 16.7567C11.6385 16.8272 11.4644 16.9413 11.3319 17.0992C11.1356 17.3338 11.0181 17.6153 10.9794 17.9436C10.9623 18.0882 10.9537 18.1686 10.9537 18.1849C10.9525 18.2753 10.9773 18.3547 11.0281 18.423C11.0794 18.4917 11.1752 18.5447 11.3156 18.5817C12.6581 18.938 14.0029 18.9438 15.35 18.5992C15.485 18.5647 15.5762 18.5249 15.6237 18.4799C15.7 18.4069 15.7369 18.3049 15.7344 18.1736C15.7294 17.9153 15.6862 17.6847 15.605 17.4817C15.4562 17.1122 15.1923 16.8682 14.8131 16.7499C14.639 16.6953 14.5192 16.6486 14.4537 16.6099ZM16.1056 14.1855C16.0144 14.3892 16.04 14.5378 16.1825 14.6311C16.2575 14.6803 16.3808 14.7049 16.5525 14.7049C17.7925 14.7049 19.0325 14.7049 20.2725 14.7049C20.4346 14.7049 20.5429 14.693 20.5975 14.6692C20.7258 14.6134 20.7754 14.4963 20.7463 14.318C20.7271 14.203 20.6729 14.1192 20.5837 14.0667C20.5275 14.0338 20.4373 14.0174 20.3131 14.0174C19.0627 14.0174 17.8121 14.0174 16.5613 14.0174C16.4129 14.0174 16.3306 14.0188 16.3144 14.0217C16.216 14.0397 16.1465 14.0942 16.1056 14.1855ZM16.0675 15.5261C16.0458 15.6707 16.0938 15.7782 16.2113 15.8486C16.2779 15.8882 16.3806 15.908 16.5194 15.908C17.8044 15.908 19.0896 15.908 20.375 15.908C20.6596 15.908 20.784 15.7878 20.7481 15.5474C20.7323 15.4424 20.6919 15.3609 20.6269 15.303C20.5515 15.2367 20.4575 15.2067 20.345 15.213C20.2637 15.218 20.221 15.2205 20.2169 15.2205C18.9965 15.2155 17.7762 15.2155 16.5562 15.2205C16.5529 15.2205 16.5154 15.2184 16.4438 15.2142C16.3492 15.2088 16.2683 15.2317 16.2013 15.283C16.1287 15.338 16.0842 15.419 16.0675 15.5261ZM18.0231 19.1167C18.1856 19.1359 18.2925 19.0613 18.3438 18.893C18.3679 18.8126 18.3806 18.7711 18.3819 18.7686C18.5927 18.1903 18.7987 17.6103 19 17.0286C19.0408 16.9107 19.0458 16.8188 19.015 16.753C18.9675 16.6513 18.8687 16.604 18.7188 16.6111C18.6192 16.6157 18.5485 16.6503 18.5069 16.7149C18.504 16.719 18.479 16.7859 18.4319 16.9155C18.2265 17.4797 18.0254 18.0453 17.8288 18.6124C17.8271 18.6161 17.8113 18.6534 17.7812 18.7242C17.74 18.8205 17.7429 18.9067 17.79 18.983C17.8379 19.0597 17.9156 19.1042 18.0231 19.1167ZM19.7406 17.8786C19.7902 17.904 19.7896 17.9269 19.7388 17.9474C19.5646 18.0186 19.4038 18.1074 19.2563 18.2136C19.2388 18.2261 19.2262 18.243 19.22 18.2611C19.1804 18.3807 19.1987 18.5005 19.275 18.6205C19.2994 18.6592 19.3475 18.673 19.3862 18.653L20.3675 18.138C20.4125 18.1142 20.4444 18.0636 20.4531 18.0024L20.4956 17.6936C20.5077 17.6094 20.4781 17.5509 20.4069 17.518C20.1635 17.4042 19.9213 17.2892 19.68 17.173C19.5283 17.1001 19.4221 17.0682 19.3612 17.0774C19.2292 17.0978 19.1815 17.2388 19.2181 17.5005C19.2294 17.5817 19.2696 17.6399 19.3388 17.6749L19.7406 17.8786ZM17.1569 17.9967C17.106 17.9734 17.1069 17.9505 17.1594 17.928C17.3235 17.8584 17.4781 17.7726 17.6231 17.6705C17.724 17.5992 17.725 17.5405 17.6262 17.4942C17.6087 17.4861 17.5956 17.4705 17.5919 17.4517C17.5544 17.2709 17.4604 17.2238 17.31 17.3105C17.2467 17.3472 17.2135 17.3661 17.2106 17.3674C16.966 17.4915 16.7229 17.6182 16.4813 17.7474C16.4481 17.7649 16.425 17.7974 16.4188 17.8349C16.3996 17.949 16.4104 18.0374 16.4513 18.0999C16.465 18.1207 16.5294 18.1686 16.6444 18.2436C17.0527 18.5115 17.3119 18.6757 17.4219 18.7361C17.5115 18.7853 17.5835 18.7805 17.6381 18.7217C17.6706 18.6863 17.6894 18.6284 17.6944 18.548C17.699 18.4738 17.7021 18.393 17.7038 18.3055C17.7044 18.2724 17.6844 18.2417 17.6525 18.2267L17.1569 17.9967Z" fill="#03010F"/>
<path d="M14.4538 16.6099C14.5192 16.6486 14.639 16.6953 14.8132 16.7499C15.1923 16.8682 15.4563 17.1122 15.605 17.4817C15.6863 17.6847 15.7294 17.9153 15.7344 18.1736C15.7369 18.3049 15.7 18.4069 15.6238 18.4799C15.5763 18.5249 15.485 18.5647 15.35 18.5992C14.0029 18.9438 12.6582 18.938 11.3157 18.5817C11.1752 18.5447 11.0794 18.4917 11.0282 18.423C10.9773 18.3547 10.9525 18.2753 10.9538 18.1849C10.9538 18.1686 10.9623 18.0882 10.9794 17.9436C11.0182 17.6153 11.1357 17.3338 11.3319 17.0992C11.4644 16.9413 11.6386 16.8272 11.8544 16.7567C11.9682 16.7197 12.0517 16.6876 12.105 16.6605C12.1813 16.6222 12.2613 16.5811 12.345 16.5374C12.3619 16.5292 12.3707 16.5099 12.3657 16.4917C12.3286 16.3426 12.2782 16.2276 12.2144 16.1467C11.9952 15.8684 11.9452 15.5474 12.0644 15.1836C12.0723 15.159 12.0788 15.134 12.0838 15.1086C12.2292 14.4061 12.6232 14.0449 13.2657 14.0249C14.0511 14.0007 14.4786 14.3719 14.5482 15.1386C14.55 15.158 14.5582 15.1774 14.5713 15.193C14.6671 15.3072 14.7102 15.4413 14.7007 15.5955C14.6852 15.8484 14.5867 16.0703 14.405 16.2611C14.275 16.3978 14.2913 16.514 14.4538 16.6099ZM13.7225 14.8105C13.66 14.758 13.5802 14.7278 13.4832 14.7199C13.4048 14.7132 13.3221 14.7115 13.235 14.7149C13.0546 14.7215 12.9044 14.7978 12.7844 14.9436C12.7382 15.0003 12.7221 15.0647 12.7363 15.1367C12.7654 15.2826 12.7611 15.4294 12.7232 15.5774C12.7182 15.5967 12.7075 15.6149 12.6919 15.6286L12.6325 15.6836C12.6213 15.6942 12.6225 15.7124 12.6357 15.7205C12.749 15.7905 12.8223 15.8699 12.8557 15.9586C12.9215 16.1349 12.9669 16.2488 12.9919 16.3005C13.0336 16.3863 13.0925 16.4524 13.1688 16.4986C13.2488 16.547 13.3271 16.5605 13.4038 16.5392C13.4829 16.5176 13.5515 16.4634 13.6094 16.3767C13.7082 16.2288 13.7694 16.113 13.7932 16.0292C13.819 15.9359 13.8686 15.8782 13.9419 15.8561C13.9644 15.8499 13.9825 15.8386 13.9925 15.8255C14.0496 15.7509 14.0567 15.6805 14.0138 15.6142C13.9567 15.5259 13.9265 15.4757 13.9232 15.4636C13.8965 15.3753 13.8848 15.2838 13.8882 15.1892C13.8936 15.0334 13.8384 14.9072 13.7225 14.8105ZM11.6619 17.9842C12.8007 18.2863 13.9307 18.2857 15.0519 17.9824C15.0694 17.978 15.08 17.9611 15.0769 17.9442C15.0119 17.5997 14.8246 17.3715 14.515 17.2599C14.3213 17.1899 14.2225 17.154 14.2188 17.1524C14.0921 17.0932 13.9588 17.0238 13.8188 16.9442C13.7994 16.9336 13.7769 16.9336 13.7575 16.9442C13.51 17.0847 13.2492 17.0844 12.975 16.9436C12.9569 16.9349 12.9357 16.9349 12.9188 16.9449C12.6917 17.0744 12.46 17.1786 12.2238 17.2574C12.0375 17.319 11.9117 17.3803 11.8463 17.4411C11.72 17.5582 11.6407 17.7113 11.6082 17.9005C11.6019 17.938 11.625 17.9742 11.6619 17.9842Z" fill="#FFFAFF"/>
<path d="M16.1056 14.1855C16.1465 14.0942 16.216 14.0397 16.3144 14.0217C16.3306 14.0188 16.4129 14.0174 16.5612 14.0174C17.8121 14.0174 19.0627 14.0174 20.3131 14.0174C20.4373 14.0174 20.5275 14.0338 20.5837 14.0667C20.6729 14.1192 20.7271 14.203 20.7462 14.318C20.7754 14.4963 20.7258 14.6134 20.5975 14.6692C20.5429 14.693 20.4346 14.7049 20.2725 14.7049C19.0325 14.7049 17.7925 14.7049 16.5525 14.7049C16.3808 14.7049 16.2575 14.6803 16.1825 14.6311C16.04 14.5378 16.0144 14.3892 16.1056 14.1855Z" fill="#FFFAFF"/>
<path d="M13.7225 14.8105C13.8384 14.9072 13.8936 15.0334 13.8882 15.1892C13.8848 15.2838 13.8965 15.3753 13.9232 15.4636C13.9265 15.4757 13.9567 15.5259 14.0138 15.6142C14.0567 15.6805 14.0496 15.7509 13.9925 15.8255C13.9825 15.8386 13.9644 15.8499 13.9419 15.8561C13.8686 15.8782 13.819 15.9359 13.7932 16.0292C13.7694 16.113 13.7082 16.2288 13.6094 16.3767C13.5515 16.4634 13.4829 16.5176 13.4038 16.5392C13.3271 16.5605 13.2488 16.5469 13.1688 16.4986C13.0925 16.4524 13.0336 16.3863 12.9919 16.3005C12.9669 16.2488 12.9215 16.1349 12.8557 15.9586C12.8223 15.8699 12.749 15.7905 12.6357 15.7205C12.6225 15.7124 12.6213 15.6942 12.6325 15.6836L12.6919 15.6286C12.7075 15.6149 12.7182 15.5967 12.7232 15.5774C12.7611 15.4294 12.7654 15.2826 12.7363 15.1367C12.7221 15.0647 12.7382 15.0003 12.7844 14.9436C12.9044 14.7978 13.0546 14.7215 13.235 14.7149C13.3221 14.7115 13.4048 14.7132 13.4832 14.7199C13.5802 14.7278 13.66 14.758 13.7225 14.8105Z" fill="#03010F"/>
<path d="M7.58749 16.453C7.86333 16.6838 8.13687 16.9284 8.40812 17.1867C8.48187 17.2572 8.52812 17.3222 8.54687 17.3817C8.57353 17.4684 8.56937 17.5528 8.53437 17.6349C8.4977 17.7199 8.43374 17.7747 8.34249 17.7992C8.24041 17.8267 8.14832 17.8097 8.06624 17.748C7.76458 17.5201 7.32708 17.1392 6.75374 16.6055C6.73812 16.5911 6.72687 16.573 6.72249 16.5536C6.67708 16.3582 6.72978 16.1919 6.88062 16.0549C7.17395 15.7882 7.47062 15.5253 7.77062 15.2661C7.95187 15.1099 8.04478 15.0303 8.04937 15.0274C8.19103 14.939 8.32687 14.9563 8.45687 15.0792C8.52812 15.1467 8.57062 15.2211 8.58437 15.3024C8.60103 15.4057 8.56895 15.4942 8.48812 15.568C8.19687 15.8347 7.89624 16.1032 7.58624 16.3736C7.56249 16.3949 7.56312 16.4324 7.58749 16.453Z" fill="#FFFAFF"/>
<path d="M23.6212 17.8024C23.4841 17.7128 23.4346 17.6019 23.4725 17.4699C23.4933 17.3974 23.5562 17.3128 23.6612 17.2161C23.9162 16.9811 24.1802 16.7465 24.4531 16.5124C24.4818 16.4874 24.4825 16.443 24.4543 16.418C24.1535 16.1488 23.8498 15.8759 23.5431 15.5992C23.4668 15.5309 23.4306 15.4444 23.4343 15.3399C23.4377 15.2461 23.4706 15.1659 23.5331 15.0992C23.6073 15.0197 23.7008 14.9869 23.8137 15.0011C23.8866 15.0103 23.9679 15.0519 24.0575 15.1261C24.4316 15.4361 24.7983 15.7549 25.1575 16.0824C25.2408 16.1582 25.2875 16.2351 25.2975 16.313C25.3075 16.3967 25.295 16.4769 25.26 16.5536C25.2358 16.6061 25.186 16.6657 25.1106 16.7324C24.7806 17.0236 24.4508 17.3153 24.1212 17.6074C24.0512 17.669 24.0035 17.7222 23.9781 17.7667C23.9662 17.7874 23.9525 17.803 23.9387 17.8105C23.83 17.8726 23.7241 17.8699 23.6212 17.8024Z" fill="#FFFAFF"/>
<path d="M16.2012 15.283C16.2683 15.2317 16.3492 15.2088 16.4437 15.2142C16.5154 15.2184 16.5529 15.2205 16.5562 15.2205C17.7762 15.2155 18.9965 15.2155 20.2169 15.2205C20.221 15.2205 20.2637 15.218 20.345 15.213C20.4575 15.2067 20.5515 15.2367 20.6269 15.303C20.6919 15.3609 20.7323 15.4424 20.7481 15.5474C20.784 15.7878 20.6596 15.908 20.375 15.908C19.0896 15.908 17.8044 15.908 16.5194 15.908C16.3806 15.908 16.2779 15.8882 16.2112 15.8486C16.0937 15.7782 16.0458 15.6707 16.0675 15.5261C16.0842 15.419 16.1287 15.338 16.2012 15.283Z" fill="#FFFAFF"/>
<path d="M17.79 18.983C17.7429 18.9067 17.74 18.8205 17.7813 18.7242C17.8113 18.6534 17.8271 18.6161 17.8288 18.6124C18.0254 18.0453 18.2265 17.4797 18.4319 16.9155C18.479 16.7859 18.504 16.719 18.5069 16.7149C18.5486 16.6503 18.6192 16.6157 18.7188 16.6111C18.8688 16.604 18.9675 16.6513 19.015 16.753C19.0459 16.8188 19.0409 16.9107 19 17.0286C18.7988 17.6103 18.5927 18.1903 18.3819 18.7686C18.3806 18.7711 18.3679 18.8126 18.3438 18.893C18.2925 19.0613 18.1856 19.1359 18.0231 19.1167C17.9156 19.1042 17.8379 19.0597 17.79 18.983Z" fill="#FFFAFF"/>
<path d="M11.6619 17.9842C11.625 17.9742 11.6019 17.938 11.6081 17.9005C11.6406 17.7113 11.72 17.5582 11.8463 17.4411C11.9117 17.3803 12.0375 17.319 12.2238 17.2574C12.46 17.1786 12.6917 17.0744 12.9188 16.9449C12.9356 16.9349 12.9569 16.9349 12.975 16.9436C13.2492 17.0845 13.51 17.0847 13.7575 16.9442C13.7769 16.9336 13.7994 16.9336 13.8188 16.9442C13.9588 17.0238 14.0921 17.0932 14.2188 17.1524C14.2225 17.154 14.3213 17.1899 14.515 17.2599C14.8246 17.3715 15.0119 17.5997 15.0769 17.9442C15.08 17.9611 15.0694 17.978 15.0519 17.9824C13.9306 18.2857 12.8006 18.2863 11.6619 17.9842Z" fill="#03010F"/>
<path d="M19.7406 17.8786L19.3387 17.6749C19.2696 17.6399 19.2294 17.5817 19.2181 17.5005C19.1815 17.2388 19.2292 17.0978 19.3612 17.0774C19.4221 17.0682 19.5283 17.1001 19.68 17.173C19.9212 17.2892 20.1635 17.4042 20.4069 17.518C20.4781 17.5509 20.5077 17.6094 20.4956 17.6936L20.4531 18.0024C20.4444 18.0636 20.4125 18.1142 20.3675 18.138L19.3862 18.653C19.3475 18.673 19.2994 18.6592 19.275 18.6205C19.1987 18.5005 19.1804 18.3807 19.22 18.2611C19.2262 18.243 19.2387 18.2261 19.2562 18.2136C19.4037 18.1074 19.5646 18.0186 19.7387 17.9474C19.7896 17.9269 19.7902 17.904 19.7406 17.8786Z" fill="#FFFAFF"/>
<path d="M17.1569 17.9967L17.6525 18.2267C17.6844 18.2417 17.7044 18.2724 17.7037 18.3055C17.7021 18.393 17.6989 18.4738 17.6944 18.548C17.6894 18.6284 17.6706 18.6863 17.6381 18.7217C17.5835 18.7805 17.5114 18.7853 17.4219 18.7361C17.3119 18.6757 17.0527 18.5115 16.6444 18.2436C16.5294 18.1686 16.465 18.1207 16.4512 18.0999C16.4104 18.0374 16.3996 17.949 16.4187 17.8349C16.425 17.7974 16.4481 17.7649 16.4812 17.7474C16.7229 17.6182 16.966 17.4915 17.2106 17.3674C17.2135 17.3661 17.2466 17.3472 17.31 17.3105C17.4604 17.2238 17.5544 17.2709 17.5919 17.4517C17.5956 17.4705 17.6087 17.4861 17.6262 17.4942C17.725 17.5405 17.7239 17.5992 17.6231 17.6705C17.4781 17.7726 17.3235 17.8584 17.1594 17.928C17.1069 17.9505 17.106 17.9734 17.1569 17.9967Z" fill="#FFFAFF"/>
<path d="M27.2431 22.2174C27.2706 22.2174 27.2906 22.2449 27.2844 22.2742L27.2338 22.5292C27.2288 22.5538 27.2215 22.5726 27.2119 22.5855C26.8131 23.1351 26.5434 23.4965 26.4025 23.6699C26.2996 23.7957 26.1602 23.8588 25.9844 23.8592C19.2969 23.8605 12.6094 23.8611 5.92189 23.8611C5.76356 23.8611 5.6371 23.8057 5.54252 23.6949C5.39919 23.5269 5.13377 23.1826 4.74627 22.6617C4.64835 22.5305 4.62606 22.3944 4.67939 22.2536C4.68627 22.2361 4.70377 22.2242 4.72314 22.2242L12.8906 22.2049C12.9275 22.2049 12.9631 22.2217 12.9863 22.2511C13.1192 22.4186 13.2617 22.5932 13.4138 22.7749C13.4679 22.8399 13.5319 22.8884 13.6056 22.9205C13.659 22.9434 13.7361 22.9549 13.8369 22.9549C15.3027 22.9549 16.7686 22.9549 18.2344 22.9549C18.3369 22.9549 18.4202 22.9299 18.4844 22.8799C18.4894 22.8761 18.5436 22.8138 18.6469 22.693C18.7765 22.5417 18.9044 22.3897 19.0306 22.2367C19.0413 22.2242 19.0569 22.2167 19.0725 22.2167L27.2431 22.2174Z" fill="#03010F"/>
</g>
<defs>
<clipPath id="clip0_23_430">
<rect width="32" height="32" fill="white" transform="translate(0 0.361115)"/>
</clipPath>
</defs>
</svg>
