<svg width="32" height="33" viewBox="0 0 32 33" fill="none" xmlns="http://www.w3.org/2000/svg">
<g clip-path="url(#clip0_23_465)">
<path d="M32 16.5524C32 16.6724 32 16.7922 32 16.9117C31.9754 17.7359 31.9129 18.4899 31.8125 19.1736C31.6296 20.4207 31.2844 21.6553 30.7769 22.8774C29.6065 25.6949 27.7902 28.002 25.3281 29.7986C24.1802 30.6361 22.9179 31.309 21.5413 31.8174C21.5363 31.819 21.45 31.8538 21.2825 31.9217C21.1433 31.978 21.0179 32.0099 20.9062 32.0174C20.4879 32.0457 20.2087 31.9126 20.0688 31.618C20.0042 31.4822 19.9727 31.2305 19.9744 30.863C19.9815 29.4822 19.9844 28.1013 19.9831 26.7205C19.9827 25.9584 19.8308 25.2722 19.5275 24.6617C19.4058 24.4176 19.2125 24.1544 18.9475 23.8724C18.9329 23.857 18.936 23.8474 18.9569 23.8436C19.3106 23.7795 19.5958 23.7332 19.8125 23.7049C20.9946 23.5503 22.061 23.2001 23.0119 22.6542C24.3285 21.8984 25.2294 20.7732 25.7144 19.2786C25.9765 18.4728 26.1292 17.6461 26.1725 16.7986C26.1938 16.3832 26.204 16.0811 26.2031 15.8924C26.1965 14.2907 25.6656 12.8809 24.6106 11.663C24.5812 11.6286 24.5719 11.5817 24.5863 11.5392C24.8517 10.7576 24.9363 9.95882 24.84 9.14299C24.7692 8.54257 24.6271 7.95966 24.4137 7.39424C24.4069 7.37612 24.3906 7.36299 24.3713 7.36049C24.0263 7.30966 23.6681 7.3307 23.2969 7.42362C22.7606 7.55778 22.274 7.73132 21.8369 7.94424C21.269 8.22091 20.6944 8.55507 20.1131 8.94674C20.0502 8.98882 19.9821 9.00028 19.9088 8.98112C17.3054 8.29445 14.6806 8.29737 12.0344 8.98987C12.015 8.99487 11.9944 8.99174 11.9775 8.98112C11.5321 8.70195 11.08 8.43403 10.6213 8.17737C9.96208 7.80903 9.26375 7.54487 8.52625 7.38487C8.2275 7.32028 7.92833 7.31195 7.62875 7.35987C7.60938 7.36299 7.59312 7.37612 7.58625 7.39424C7.30917 8.12257 7.15542 8.83549 7.125 9.53299C7.09458 10.2292 7.19333 10.9005 7.42125 11.5467C7.43375 11.5836 7.42625 11.6242 7.40063 11.6536C6.36229 12.849 5.82896 14.2197 5.80062 15.7655C5.79479 16.0822 5.80583 16.4586 5.83375 16.8949C5.85792 17.2711 5.90146 17.6455 5.96438 18.018C6.08729 18.7463 6.30833 19.443 6.6275 20.108C7.05125 20.9922 7.65958 21.722 8.4525 22.2974C8.94208 22.6528 9.46938 22.9388 10.0344 23.1555C10.8194 23.4563 11.6296 23.6563 12.465 23.7555C12.6158 23.7734 12.8035 23.8076 13.0281 23.858C13.0419 23.8611 13.0462 23.878 13.0369 23.8886C12.5023 24.4728 12.1846 25.1478 12.0837 25.9136C12.0769 25.9655 12.0425 26.0099 11.9944 26.0299C11.4873 26.2436 10.9742 26.3682 10.455 26.4036C10.0712 26.4295 9.71875 26.3999 9.3975 26.3149C9.03292 26.219 8.70896 26.0613 8.42562 25.8417C8.01521 25.5234 7.6975 25.1692 7.4725 24.7792C7.2325 24.3626 6.92771 24.0007 6.55813 23.6936C6.21812 23.4107 5.835 23.2084 5.40875 23.0867C5.14542 23.0117 4.87854 22.9961 4.60813 23.0399C4.45896 23.064 4.34188 23.1315 4.25688 23.2424C4.22062 23.2899 4.21938 23.3549 4.25313 23.403C4.40521 23.6217 4.58813 23.8069 4.80188 23.9586C5.06854 24.1474 5.21208 24.2505 5.2325 24.268C5.71417 24.688 6.09292 25.1909 6.36875 25.7767C6.47625 26.0042 6.58271 26.2324 6.68813 26.4611C7.14521 27.4474 7.86146 28.1055 8.83687 28.4355C9.19521 28.5563 9.60396 28.6307 10.0631 28.6586C10.6919 28.6965 11.319 28.6436 11.9444 28.4999C11.9806 28.4917 12.015 28.5192 12.0156 28.5567C12.0215 29.2322 12.026 29.913 12.0294 30.5992C12.0315 31.0547 12.021 31.3326 11.9981 31.433C11.9127 31.8042 11.6687 31.9974 11.2662 32.0124C11.0962 32.0186 10.8802 31.9738 10.6181 31.878C7.47146 30.7251 4.93854 28.812 3.01938 26.1386C1.07438 23.429 0.0679167 20.3561 0 16.9199C0 16.779 0 16.6384 0 16.498C0.0641667 13.6113 0.815417 10.9576 2.25375 8.53674C3.59583 6.27841 5.39563 4.45257 7.65312 3.05924C8.00854 2.84007 8.37208 2.63591 8.74375 2.44674C11.5462 1.02341 14.524 0.47049 17.6769 0.78799C18.0935 0.829657 18.5054 0.888824 18.9125 0.96549C21.6546 1.48132 24.0912 2.62757 26.2225 4.40424C27.9062 5.80716 29.2579 7.50757 30.2775 9.50549C31.3804 11.6672 31.9546 14.0161 32 16.5524Z" fill="#FFFAFF"/>
</g>
<defs>
<clipPath id="clip0_23_465">
<rect width="32" height="32" fill="white" transform="translate(0 0.361115)"/>
</clipPath>
</defs>
</svg>
