<svg width="32" height="33" viewBox="0 0 32 33" fill="none" xmlns="http://www.w3.org/2000/svg">
<g clip-path="url(#clip0_23_463)">
<path d="M15.5662 0.361115C15.8579 0.361115 16.1496 0.361115 16.4412 0.361115C18.7433 0.439031 20.8815 0.950698 22.8556 1.89611C25.6406 3.22986 27.8704 5.21361 29.545 7.84736C29.7712 8.20361 29.9794 8.56403 30.1694 8.92861C31.3073 11.1132 31.9175 13.4513 32 15.943C32 16.2192 32 16.4953 32 16.7711C31.9221 19.204 31.3583 21.4567 30.3088 23.5292C28.8421 26.4247 26.686 28.6838 23.8406 30.3067C23.4731 30.5167 23.1031 30.7074 22.7306 30.8786C20.7035 31.8119 18.5629 32.3061 16.3088 32.3611C16.0742 32.3611 15.8398 32.3611 15.6056 32.3611C11.2269 32.179 7.53708 30.5607 4.53625 27.5061C4.24167 27.2061 3.9625 26.8967 3.69875 26.578C1.38417 23.778 0.15125 20.5274 0 16.8261C0 16.529 0 16.2322 0 15.9355C0.125 12.4226 1.24354 9.29757 3.35562 6.56049C4.41437 5.18841 5.69563 4.00736 7.19938 3.01736C9.73146 1.3507 12.5204 0.465281 15.5662 0.361115ZM10.8763 7.65799C10.575 7.40882 10.2204 7.25778 9.8125 7.20486C9.51042 7.1657 9.21813 7.17111 8.93563 7.22111C8.63979 7.2732 8.37063 7.37424 8.12813 7.52424C7.59729 7.85216 7.29938 8.34466 7.23438 9.00174C7.18354 9.51382 7.29604 9.96195 7.57188 10.3461C7.81271 10.6815 8.14083 10.9272 8.55625 11.083C8.99875 11.2488 9.47062 11.2786 9.97188 11.1724C10.2444 11.1144 10.4869 11.0147 10.6994 10.873C11.2102 10.5313 11.504 10.0765 11.5806 9.50861C11.6281 9.1557 11.5954 8.82174 11.4825 8.50674C11.3642 8.17716 11.1621 7.89424 10.8763 7.65799ZM17.4094 14.333L17.4062 12.8655C17.4062 12.8461 17.3906 12.8299 17.3713 12.8299H13.5431C13.525 12.8299 13.5106 12.8442 13.5112 12.8624C13.5367 15.2824 13.54 17.6884 13.5212 20.0805C13.5179 20.4788 13.5167 20.8953 13.5175 21.3299C13.52 22.3949 13.5156 23.4561 13.5044 24.5136C13.5038 24.533 13.5194 24.5486 13.5387 24.5486H17.3519C17.3819 24.5486 17.4062 24.5242 17.4062 24.4942C17.4062 22.2751 17.4062 20.0484 17.4062 17.8142C17.4062 17.4042 17.5125 17.0259 17.725 16.6792C18.0875 16.088 18.5808 15.7465 19.205 15.6549C19.6496 15.5899 20.0556 15.6469 20.4231 15.8261C20.891 16.054 21.2008 16.4555 21.3525 17.0305C21.45 17.3997 21.4988 17.7755 21.4988 18.158C21.4996 20.2776 21.5 22.3901 21.5 24.4955C21.5 24.5249 21.5238 24.5486 21.5531 24.5486H25.355C25.3831 24.5486 25.4056 24.5261 25.4062 24.498C25.4133 22.2534 25.4094 20.0305 25.3944 17.8292C25.3915 17.4126 25.3754 17.0805 25.3463 16.833C25.3058 16.4922 25.2465 16.1642 25.1681 15.8492C25.0465 15.3622 24.8465 14.8947 24.5681 14.4467C24.0302 13.5813 23.2692 13.0099 22.285 12.7324C21.6604 12.5561 21.0206 12.5059 20.3656 12.5817C19.916 12.6338 19.515 12.7403 19.1625 12.9011C18.5029 13.2028 17.9477 13.6888 17.4969 14.3592C17.4385 14.4459 17.4094 14.4372 17.4094 14.333ZM11.3444 12.8492C11.3444 12.838 11.335 12.8286 11.3237 12.8286H7.47375C7.4625 12.8286 7.45312 12.838 7.45312 12.8492V24.528C7.45312 24.5392 7.4625 24.5486 7.47375 24.5486H11.3237C11.335 24.5486 11.3444 24.5392 11.3444 24.528V12.8492Z" fill="#FFFAFF"/>
</g>
<defs>
<clipPath id="clip0_23_463">
<rect width="32" height="32" fill="white" transform="translate(0 0.361115)"/>
</clipPath>
</defs>
</svg>
